<?xml version="1.0" standalone="no"?>
<!DOCTYPE svg PUBLIC "-//W3C//DTD SVG 1.1//EN" "http://www.w3.org/Graphics/SVG/1.1/DTD/svg11.dtd" >
<svg xmlns="http://www.w3.org/2000/svg" xmlns:xlink="http://www.w3.org/1999/xlink" version="1.1">
<metadata>
Created by FontForge 20200427 at Mon Nov  8 02:00:03 1999
 By www
(c)1999 ShyFonts Type Foundry
</metadata>
<defs>
<font id="SFEspressoShackBoldItalic" horiz-adv-x="1638" >
  <font-face 
    font-family="SF Espresso Shack"
    font-weight="17661"
    font-style="italic"
    font-stretch="normal"
    units-per-em="2046"
    panose-1="0 0 11 0 0 0 0 0 0 0"
    ascent="1636"
    descent="-410"
    x-height="1475"
    cap-height="1638"
    bbox="-145 -416 2958 2170"
    underline-thickness="20"
    underline-position="-143"
    unicode-range="U+0020-E002"
  />
<missing-glyph horiz-adv-x="1023" 
d="M128 0v1638h767v-1638h-767zM256 128h511v1382h-511v-1382z" />
    <glyph glyph-name=".notdef" horiz-adv-x="1023" 
d="M128 0v1638h767v-1638h-767zM256 128h511v1382h-511v-1382z" />
    <glyph glyph-name="glyph1" horiz-adv-x="0" 
 />
    <glyph glyph-name="glyph2" horiz-adv-x="922" 
 />
    <glyph glyph-name="space" unicode=" " horiz-adv-x="922" 
 />
    <glyph glyph-name="exclam" unicode="!" horiz-adv-x="573" 
d="M1040 2048l-409 -1526h-409l409 1526h409zM552 251q0 -97 -83.5 -174t-181.5 -77q-67 0 -112.5 42t-45.5 109q0 96 84 173t181 77q68 0 113 -41.5t45 -108.5z" />
    <glyph glyph-name="quotedbl" unicode="&#x22;" horiz-adv-x="881" 
d="M1243 1494q0 -104 -121 -263q-127 -166 -226 -166q84 98 84 149q0 23 -9 43q-62 3 -105 43.5t-43 101.5q0 92 85 166q82 70 176 70q67 0 113 -39t46 -105zM834 1494q0 -103 -121 -263q-126 -166 -225 -166q82 97 82 150q0 23 -8 42q-63 3 -106 43t-43 102q0 93 86 166
q82 70 176 70q67 0 113 -39t46 -105z" />
    <glyph glyph-name="numbersign" unicode="#" horiz-adv-x="1501" 
d="M1788 1376l-74 -275h-249l-99 -222h289l-74 -275h-339l-117 -262h-285l117 262h-229l-117 -262h-285l117 262h-199l74 275h249l99 222h-289l74 275h339l119 262h285l-119 -262h229l117 262h285l-117 -262h199zM1180 1101h-229l-99 -222h229z" />
    <glyph glyph-name="dollar" unicode="$" horiz-adv-x="870" 
d="M1209 1735l-44 -412q-307 0 -337 -101q-10 -34 -10 -81q0 -95 70 -302.5t70 -325.5q0 -341 -364 -503l-85 -315h-232l64 239q-114 -23 -239 -28l18 409q128 3 201 15q141 25 160 87q12 40 12 92q0 101 -70.5 305.5t-70.5 317.5q0 327 343 486l87 328h226l-65 -244
q135 30 266 33z" />
    <glyph glyph-name="percent" unicode="%" horiz-adv-x="1970" 
d="M2066 524q0 -205 -175.5 -366.5t-382.5 -161.5q-144 0 -236 83q-95 86 -95 228q0 207 176 371q172 161 381 161q142 0 237 -87t95 -228zM1994 1712l-1230 -1923l-349 138l1230 1923zM1232 1330q0 -207 -174.5 -369t-382.5 -162q-144 0 -236 82q-96 86 -96 228
q0 208 176 372q172 161 382 161q143 0 235 -84q96 -87 96 -228zM1770 454q0 47 -32 75.5t-79 28.5q-68 0 -127 -54t-59 -122q0 -47 31.5 -76t78.5 -29q69 0 128 54.5t59 122.5zM937 1257q0 47 -31.5 76t-79.5 29q-68 0 -127.5 -54t-59.5 -121q0 -47 32 -77t79 -30
q69 0 128 54.5t59 122.5z" />
    <glyph glyph-name="ampersand" unicode="&#x26;" horiz-adv-x="1556" 
d="M1747 1019l-107 -399h-225q-33 -125 -33 -137q0 -86 127 -86q14 0 38.5 1t33.5 1l-107 -399h-20q-139 0 -202 13q-103 21 -180 90q-172 -103 -345 -103h-205q-169 0 -285 97q-124 102 -124 268q0 129 73 255q67 117 177 199q-71 89 -71 210q0 243 215 430
q207 179 454 179h645l-107 -398h-645q-52 0 -99 -43t-47 -95q0 -83 87 -83h952zM1006 620h-318q-52 0 -99 -42.5t-47 -94.5q0 -37 25 -60.5t62 -23.5h205q45 0 87.5 32.5t54.5 75.5z" />
    <glyph glyph-name="quotesingle" unicode="'" horiz-adv-x="471" 
d="M834 1494q0 -103 -121 -263q-126 -166 -225 -166q82 97 82 150q0 23 -8 42q-63 3 -106 43t-43 102q0 93 86 166q82 70 176 70q67 0 113 -39t46 -105z" />
    <glyph glyph-name="parenleft" unicode="(" horiz-adv-x="799" 
d="M1161 1625q-223 -180 -347 -355q-137 -194 -206 -451q-48 -180 -48 -317q0 -246 169 -489l-377 -222q-214 299 -214 620q0 179 61 408q88 328 261 576q162 231 443 454z" />
    <glyph glyph-name="parenright" unicode=")" horiz-adv-x="799" 
d="M1099 1229q0 -181 -61 -410q-88 -330 -261 -575q-158 -226 -442 -453l-260 222q224 181 348 355q137 193 206 451q47 177 47 316q0 252 -169 490l379 224q213 -293 213 -620z" />
    <glyph glyph-name="asterisk" unicode="*" horiz-adv-x="1217" 
d="M1479 1263l-283 -137l210 -136l-207 -239l-210 137l-73 -274h-286l73 274l-284 -137l-79 239l284 136l-211 137l207 239l210 -138l74 274h286l-74 -274l284 138z" />
    <glyph glyph-name="plus" unicode="+" horiz-adv-x="1126" 
d="M1306 976l-84 -313h-317l-82 -305h-327l82 305h-318l84 313h318l81 304h327l-81 -304h317z" />
    <glyph glyph-name="comma" unicode="," horiz-adv-x="471" 
d="M494 225q0 -103 -121 -262q-125 -166 -224 -166q82 97 82 152q0 20 -8 38q-63 3 -107 43.5t-44 102.5q0 93 86 166q83 70 177 70q67 0 113 -39t46 -105z" />
    <glyph glyph-name="hyphen" unicode="-" horiz-adv-x="1126" 
d="M1302 963l-77 -287h-962l77 287h962z" />
    <glyph glyph-name="hyphen" unicode="&#x2010;" horiz-adv-x="1126" 
d="M1302 963l-77 -287h-962l77 287h962z" />
    <glyph glyph-name="period" unicode="." horiz-adv-x="471" 
d="M495 229q0 -92 -85 -162q-80 -67 -174 -67q-65 0 -112 38q-50 40 -50 104q0 91 86 161q82 66 175 66q66 0 111 -36q49 -40 49 -104z" />
    <glyph glyph-name="slash" unicode="/" horiz-adv-x="1049" 
d="M1534 1712l-1231 -1923l-349 138l1230 1923z" />
    <glyph glyph-name="zero" unicode="0" 
d="M1908 1035q0 -403 -345 -722q-338 -313 -744 -313q-279 0 -461 163q-188 169 -188 445q0 401 346 719q337 311 742 311q345 0 527 -241q123 -162 123 -362zM1484 926q0 141 -97 229q-93 85 -236 85q-209 0 -382 -160q-176 -164 -176 -371q0 -142 97 -228q92 -82 236 -82
q207 0 381 159q177 163 177 368z" />
    <glyph glyph-name="one" unicode="1" horiz-adv-x="573" 
d="M930 1638l-439 -1638h-409l439 1638h409z" />
    <glyph glyph-name="two" unicode="2" horiz-adv-x="1522" 
d="M1796 1043q0 -96 -28 -201q-83 -312 -350 -526q-155 -124 -556 -323h678l-107 -401h-1449l105 392l917 487q365 194 365 468q0 136 -94 218q-90 79 -227 79q-247 0 -431 -233l-307 189q358 446 850 446q271 0 449 -161q185 -166 185 -434z" />
    <glyph glyph-name="three" unicode="3" horiz-adv-x="1563" 
d="M1930 1638l-518 -590q297 -149 297 -478q0 -393 -331 -690q-322 -288 -719 -288q-447 0 -587 392l392 256q48 -247 304 -247q189 0 346 128q167 136 167 321q0 125 -92 201q-86 72 -213 72h-352l457 523h-667l107 400h1409z" />
    <glyph glyph-name="four" unicode="4" horiz-adv-x="1536" 
d="M1893 1638l-439 -1638h-409l80 300h-1076l972 1344l328 -161l-564 -784h447l252 939h409z" />
    <glyph glyph-name="five" unicode="5" horiz-adv-x="1626" 
d="M1923 1638l-107 -400h-898l-70 -171q145 49 297 49q264 0 438 -152q184 -159 184 -419q0 -382 -339 -673q-324 -280 -712 -280q-451 0 -588 392l392 256q49 -247 312 -247q187 0 345 129q167 136 167 319q0 127 -99 204q-91 70 -222 70q-150 0 -278 -84
q-121 -79 -198 -215l-393 53l520 1169h1249z" />
    <glyph glyph-name="six" unicode="6" 
d="M1797 622q0 -401 -345 -719q-337 -311 -742 -311q-279 0 -461 166q-187 171 -187 447q0 402 403 770q251 224 754 671l244 -258l-180 -161q234 -34 374 -201t140 -404zM1376 524q0 142 -93.5 228t-236.5 86q-208 0 -383 -161q-178 -165 -178 -371q0 -142 97 -228
q92 -83 236 -83q210 0 382 159q176 162 176 370z" />
    <glyph glyph-name="seven" unicode="7" horiz-adv-x="1409" 
d="M2037 1638l-1807 -2053l-313 209l1271 1444h-747l107 400h1489z" />
    <glyph glyph-name="eight" unicode="8" horiz-adv-x="1561" 
d="M1773 1238q0 -140 -84 -280q-78 -128 -200 -217q175 -131 175 -348q0 -357 -327 -591q-294 -210 -666 -210q-251 0 -435 112q-219 132 -219 367q0 65 20 142q90 346 432 529q-83 102 -83 240q0 296 277 486q247 170 556 170q212 0 368 -92q186 -111 186 -308zM1346 1136
q0 74 -78 114q-62 32 -144 32q-114 0 -210 -57q-113 -67 -113 -173q0 -75 77 -116q61 -33 144 -33q114 0 211 58q113 68 113 175zM1203 304q0 100 -99 155q-81 45 -189 45q-152 0 -280 -81q-146 -93 -146 -237q0 -101 98 -154q80 -43 190 -43q139 0 254 63q131 72 164 195
q8 30 8 57z" />
    <glyph glyph-name="nine" unicode="9" 
d="M1907 1031q0 -417 -405 -777l-753 -670l-244 259l180 159q-234 33 -375 202q-139 166 -139 404q0 402 345 719q337 311 742 311q347 0 527 -242q122 -164 122 -365zM1483 920q0 142 -95 229t-238 87q-209 0 -382 -160q-176 -163 -176 -371q0 -142 95 -229q92 -85 235 -85
q209 0 383 159q178 163 178 370z" />
    <glyph glyph-name="colon" unicode=":" horiz-adv-x="471" 
d="M723 1081q0 -96 -83.5 -172t-180.5 -76q-67 0 -112.5 42t-45.5 108q0 95 85 172q83 74 179 74q68 0 113 -40.5t45 -107.5zM500 249q0 -96 -83.5 -172.5t-180.5 -76.5q-67 0 -112.5 42t-45.5 108q0 95 85 172q83 74 179 74q68 0 113 -40t45 -107z" />
    <glyph glyph-name="semicolon" unicode=";" horiz-adv-x="471" 
d="M723 1081q0 -96 -83.5 -173t-180.5 -77q-67 0 -113 42.5t-46 108.5q0 95 84.5 171t180.5 76q68 0 113 -40.5t45 -107.5zM499 244q0 -106 -122 -272q-128 -174 -228 -175q83 101 83 160q0 21 -7 38q-64 3 -106 45t-42 105q0 95 84 171t180 76q68 0 113 -40.5t45 -107.5z
" />
    <glyph glyph-name="less" unicode="&#x3c;" horiz-adv-x="727" 
d="M1045 1229l-432 -410l213 -409h-419l-213 409l432 410h419z" />
    <glyph glyph-name="equal" unicode="=" horiz-adv-x="1126" 
d="M1368 1208l-83 -310h-962l83 310h962zM1243 741l-84 -311h-962l84 311h962z" />
    <glyph glyph-name="greater" unicode="&#x3e;" horiz-adv-x="727" 
d="M971 819l-431 -409h-419l431 409l-212 410h419z" />
    <glyph glyph-name="question" unicode="?" horiz-adv-x="1489" 
d="M1904 1545q0 -71 -21 -149q-78 -291 -369 -480q-271 -175 -588 -182l-57 -212h-409l163 608h389q135 0 252 66q128 73 165 194q8 26 8 59q0 100 -98 154q-80 44 -189 44q-227 0 -370 -159l-364 169q153 181 379 286t463 105q252 0 435 -123q211 -141 211 -380zM790 252
q0 -97 -84 -174.5t-182 -77.5q-67 0 -112 43t-45 109q0 95 84 172t180 77q68 0 113.5 -40.5t45.5 -108.5z" />
    <glyph glyph-name="at" unicode="@" horiz-adv-x="1331" 
d="M1541 976q0 -302 -261 -539q-254 -232 -559 -232q-211 0 -349 122q-144 127 -144 335q0 302 262 540q255 232 560 232q210 0 348 -123q143 -128 143 -335zM1277 914q0 -188 -160 -328l-59 554h-173l-374 -580l52 -21q-71 75 -71 187q0 181 157 323q152 138 335 138
q126 0 208 -73q85 -76 85 -200zM911 753l-13 114l-72 -114h85zM940 481l-15 114h-201l-62 -94l-99 38q82 -87 224 -87q74 0 153 29z" />
    <glyph glyph-name="A" unicode="A" horiz-adv-x="1227" 
d="M1435 -278l-421 -135l-67 646h-588l-157 -246l-347 138l967 1513h419zM912 593l-44 438l-279 -438h323z" />
    <glyph glyph-name="B" unicode="B" horiz-adv-x="1587" 
d="M1848 1284q0 -129 -80 -252q-73 -111 -190 -187q121 -96 121 -252q0 -239 -216 -420q-206 -173 -449 -173h-952l439 1638h909q165 0 286 -93q132 -101 132 -261zM1411 1156q0 36 -24.5 60t-60.5 24h-503l-59 -221h500q54 0 100.5 42t46.5 95zM1286 536q0 37 -25.5 60.5
t-62.5 23.5h-541l-59 -221h541q53 0 100 42t47 95z" />
    <glyph glyph-name="C" unicode="C" horiz-adv-x="1331" 
d="M1688 1638l-107 -398h-430q-208 0 -381 -160q-177 -164 -177 -371q0 -142 97 -228q92 -82 236 -82h430l-107 -399h-430q-279 0 -461 163q-188 169 -188 445q0 401 346 719q337 311 742 311h430z" />
    <glyph glyph-name="D" unicode="D" horiz-adv-x="1536" 
d="M1804 1027q0 -262 -165 -507q-156 -231 -406 -374q-256 -146 -516 -146h-635l439 1638h635q278 0 460 -165q188 -171 188 -446zM1381 926q0 141 -96 229q-93 85 -236 85h-226l-225 -841h226q207 0 380 159q177 163 177 368z" />
    <glyph glyph-name="E" unicode="E" horiz-adv-x="1434" 
d="M1790 1638l-107 -398h-860l-59 -221h655l-107 -399h-655l-59 -221h860l-107 -399h-1269l439 1638h1269z" />
    <glyph glyph-name="F" unicode="F" horiz-adv-x="1352" 
d="M1790 1638l-107 -398h-860l-59 -221h655l-107 -399h-655l-166 -620h-409l439 1638h1269z" />
    <glyph glyph-name="G" unicode="G" horiz-adv-x="1536" 
d="M1893 1638l-107 -400h-635q-209 0 -384 -163t-175 -371q0 -142 96 -228q92 -83 236 -83h226l60 222h-246l107 401h655l-381 -1424h-409l107 400h-226q-280 0 -461 164q-187 170 -187 446q0 402 345 723q338 313 744 313h635z" />
    <glyph glyph-name="H" unicode="H" 
d="M1995 1638l-439 -1638h-409l166 620h-656l-166 -620h-409l439 1638h409l-166 -619h656l166 619h409z" />
    <glyph glyph-name="I" unicode="I" horiz-adv-x="573" 
d="M930 1638l-439 -1638h-409l439 1638h409z" />
    <glyph glyph-name="J" unicode="J" horiz-adv-x="922" 
d="M1278 1638l-355 -1325q-82 -305 -357.5 -513t-592.5 -208l107 401q147 0 272.5 90t162.5 230l355 1325h408z" />
    <glyph glyph-name="K" unicode="K" 
d="M1929 1363l-835 -648l640 -847l-364 -284l-640 848l-156 -121l-85 -319h-409l441 1646h409l-204 -761l991 769z" />
    <glyph glyph-name="L" unicode="L" horiz-adv-x="1331" 
d="M1458 399l-107 -399h-1269l439 1638h409l-332 -1239h860z" />
    <glyph glyph-name="M" unicode="M" horiz-adv-x="1751" 
d="M1963 1638l-179 -1980l-419 -69l118 1326l-575 -775l-160 775l-434 -962l-381 67l722 1618h393l114 -549l409 549h392z" />
    <glyph glyph-name="N" unicode="N" 
d="M1995 1638l-439 -1638h-399l-425 901l-241 -901h-409l439 1638h399l425 -900l241 900h409z" />
    <glyph glyph-name="O" unicode="O" 
d="M1908 1035q0 -403 -345 -722q-338 -313 -744 -313q-279 0 -461 163q-188 169 -188 445q0 401 346 719q337 311 742 311q345 0 527 -241q123 -162 123 -362zM1484 926q0 141 -97 229q-93 85 -236 85q-209 0 -382 -160q-176 -164 -176 -371q0 -142 97 -228q92 -82 236 -82
q207 0 381 159q177 163 177 368z" />
    <glyph glyph-name="P" unicode="P" horiz-adv-x="1556" 
d="M1851 1179q0 -304 -261 -544q-255 -235 -561 -235h-431l-107 -400h-409l439 1638h840q211 0 348 -123q142 -128 142 -336zM1427 1072q0 73 -49.5 120.5t-123.5 47.5h-431l-118 -442h431q106 0 198.5 84.5t92.5 189.5z" />
    <glyph glyph-name="Q" unicode="Q" horiz-adv-x="1690" 
d="M1907 1034q0 -239 -139 -471q-129 -215 -337 -363l252 -332l-364 -284l-323 426q-88 -18 -179 -18q-280 0 -461 164q-187 170 -187 446q0 402 345 723q338 313 744 313q346 0 527 -242q122 -163 122 -362zM1483 923q0 141 -96 230q-93 85 -236 85q-209 0 -382 -162
q-177 -164 -177 -372q0 -142 96 -228q92 -83 236 -83q208 0 382 160q177 164 177 370z" />
    <glyph glyph-name="R" unicode="R" horiz-adv-x="1587" 
d="M1850 1177q0 -276 -221 -506q-212 -220 -490 -267l404 -534l-364 -286l-590 783l-100 -375h-409l441 1646h840q211 0 348 -124q141 -128 141 -337zM1426 1070q0 73 -49 120.5t-123 47.5h-431l-119 -444h431q107 0 199 85t92 191z" />
    <glyph glyph-name="S" unicode="S" horiz-adv-x="870" 
d="M1208 1732l-43 -411q-303 1 -337 -101q-10 -31 -10 -80q0 -94 70 -301t70 -325q0 -302 -291 -464q-228 -127 -564 -141l18 408q126 2 200 15q140 25 160 87q12 37 12 92q0 101 -70.5 304t-70.5 316q0 296 294 460q234 130 562 141z" />
    <glyph glyph-name="T" unicode="T" horiz-adv-x="1434" 
d="M1893 1638l-107 -398h-533l-332 -1240h-409l332 1240h-532l107 398h1474z" />
    <glyph glyph-name="U" unicode="U" horiz-adv-x="1536" 
d="M1944 1638l-246 -919q-80 -299 -350.5 -509t-579.5 -210q-245 0 -404 143q-166 148 -166 390q0 89 26 186l246 919h409l-246 -919q-11 -41 -11 -83q0 -108 72 -172.5t181 -64.5q137 0 257.5 93.5t156.5 226.5l246 919h409z" />
    <glyph glyph-name="V" unicode="V" horiz-adv-x="1227" 
d="M2023 1918l-1221 -1918h-419l-156 1513l420 138l108 -1043l920 1445z" />
    <glyph glyph-name="W" unicode="W" horiz-adv-x="1884" 
d="M2680 1918l-1220 -1918h-419l-33 321l-206 -321h-419l-156 1513l420 138l109 -1045l190 299l-63 608l421 138l18 -160l101 160l347 -138l-389 -608l31 -297l920 1445z" />
    <glyph glyph-name="X" unicode="X" horiz-adv-x="1384" 
d="M1805 1465l-636 -649l449 -1002l-395 -230l-395 885l-543 -549l-273 228l660 668l-300 678l396 230l246 -558l518 528z" />
    <glyph glyph-name="Y" unicode="Y" horiz-adv-x="1327" 
d="M1990 1416l-1801 -1832l-271 230l718 732l-385 870l394 230l334 -751l739 751z" />
    <glyph glyph-name="Z" unicode="Z" 
d="M2010 1638l-1094 -1239h747l-107 -399h-1489l1094 1240h-747l107 398h1489z" />
    <glyph glyph-name="bracketleft" unicode="[" horiz-adv-x="983" 
d="M1395 1843l-107 -400h-410l-334 -1247h410l-107 -399h-819l548 2046h819z" />
    <glyph glyph-name="backslash" unicode="\" horiz-adv-x="1049" 
d="M1055 -73l-424 -138l-198 1923l423 138z" />
    <glyph glyph-name="bracketright" unicode="]" horiz-adv-x="983" 
d="M1395 1843l-548 -2046h-819l107 399h410l334 1247h-410l107 400h819z" />
    <glyph glyph-name="asciicircum" unicode="^" horiz-adv-x="922" 
d="M1305 1522l-150 -195l-313 94l-364 -94l-46 195l382 116h172z" />
    <glyph glyph-name="underscore" unicode="_" horiz-adv-x="922" 
d="M910 -121l-77 -287h-962l77 287h962z" />
    <glyph glyph-name="grave" unicode="`" horiz-adv-x="793" 
d="M1263 1861l-60 -120h-706l84 313z" />
    <glyph glyph-name="a" unicode="a" horiz-adv-x="1104" 
d="M1294 -249l-384 -123l-59 580h-527l-141 -221l-314 126l870 1362h379zM820 536l-41 385l-246 -385h287z" />
    <glyph glyph-name="b" unicode="b" horiz-adv-x="1427" 
d="M1665 1154q0 -115 -71 -225q-65 -100 -169 -168q106 -86 106 -225q0 -216 -195 -380q-186 -156 -406 -156h-858l395 1475h821q149 0 258 -84q119 -92 119 -237zM1267 1037q0 76 -73 76h-452l-52 -195h449q47 0 87.5 36.5t40.5 82.5zM1155 483q0 73 -73 73h-489l-52 -194
h486q47 0 87.5 37.5t40.5 83.5z" />
    <glyph glyph-name="c" unicode="c" horiz-adv-x="1198" 
d="M1521 1475l-97 -362h-389q-185 0 -340 -142q-159 -146 -159 -329q0 -126 87 -205q83 -75 211 -75h389l-97 -362h-389q-252 0 -416 145q-170 151 -170 400q0 363 311 649q304 281 670 281h389z" />
    <glyph glyph-name="d" unicode="d" horiz-adv-x="1382" 
d="M1625 924q0 -361 -312 -646q-304 -278 -668 -278h-573l395 1475h573q251 0 415 -149q170 -154 170 -402zM1241 834q0 127 -87 204q-83 75 -211 75h-201l-201 -751h201q186 0 341 142q158 146 158 330z" />
    <glyph glyph-name="e" unicode="e" horiz-adv-x="1290" 
d="M1613 1475l-97 -362h-774l-52 -195h590l-97 -362h-590l-52 -194h774l-97 -362h-1146l395 1475h1146z" />
    <glyph glyph-name="f" unicode="f" horiz-adv-x="1217" 
d="M1613 1475l-97 -362h-774l-52 -195h590l-97 -362h-590l-149 -556h-372l395 1475h1146z" />
    <glyph glyph-name="g" unicode="g" horiz-adv-x="1382" 
d="M1705 1475l-97 -364h-573q-186 0 -341 -144q-159 -146 -159 -331q0 -127 86 -205q83 -75 211 -75h201l53 195h-221l97 364h593l-343 -1282h-372l96 359h-201q-253 0 -416 146q-170 151 -170 401q0 364 311 653q305 283 672 283h573z" />
    <glyph glyph-name="h" unicode="h" horiz-adv-x="1475" 
d="M1797 1475l-395 -1475h-371l149 556h-587l-149 -556h-372l395 1475h372l-149 -557h587l149 557h371z" />
    <glyph glyph-name="i" unicode="i" horiz-adv-x="516" 
d="M839 1475l-395 -1475h-372l395 1475h372z" />
    <glyph glyph-name="j" unicode="j" horiz-adv-x="829" 
d="M1152 1475l-319 -1193q-74 -274 -324 -461.5t-535 -187.5l97 364q131 0 244.5 80t146.5 205l319 1193h371z" />
    <glyph glyph-name="k" unicode="k" horiz-adv-x="1475" 
d="M1738 1226l-752 -583l577 -761l-330 -257l-576 762l-138 -106l-77 -289h-372l397 1483h372l-183 -682l890 690z" />
    <glyph glyph-name="l" unicode="l" horiz-adv-x="1198" 
d="M1315 362l-97 -362h-1146l395 1475h372l-298 -1113h774z" />
    <glyph glyph-name="m" unicode="m" horiz-adv-x="1575" 
d="M1768 1475l-160 -1782l-382 -63l106 1187l-517 -695l-143 695l-387 -860l-346 61l650 1457h356l101 -491l366 491h356z" />
    <glyph glyph-name="n" unicode="n" horiz-adv-x="1475" 
d="M1797 1475l-395 -1475h-361l-382 804l-215 -804h-372l395 1475h362l382 -805l215 805h371z" />
    <glyph glyph-name="o" unicode="o" horiz-adv-x="1475" 
d="M1717 923q0 -360 -312 -645q-305 -278 -668 -278q-252 0 -416 145q-170 151 -170 400q0 363 311 649q304 281 670 281q251 0 415 -149q170 -155 170 -403zM1333 834q0 127 -87 204q-83 75 -211 75q-185 0 -340 -142q-159 -146 -159 -330q0 -126 87 -204q83 -75 211 -75
q186 0 341 142q158 146 158 330z" />
    <glyph glyph-name="p" unicode="p" horiz-adv-x="1401" 
d="M1667 1057q0 -272 -236 -488q-231 -210 -506 -210h-385l-96 -359h-372l395 1475h757q189 0 314 -113q129 -118 129 -305zM1283 964q0 66 -45 107.5t-111 41.5h-385l-105 -393h385q95 0 178 75t83 169z" />
    <glyph glyph-name="q" unicode="q" horiz-adv-x="1520" 
d="M1717 921q0 -216 -124 -420q-114 -186 -304 -320l227 -299l-330 -257l-291 383q-82 -16 -160 -16q-253 0 -416 146q-170 151 -170 401q0 364 311 653q305 283 672 283q251 0 416 -150q169 -155 169 -404zM1332 831q0 127 -86 205q-83 75 -211 75q-186 0 -341 -144
q-159 -147 -159 -331q0 -127 86 -205q83 -75 211 -75q187 0 342 143q158 147 158 332z" />
    <glyph glyph-name="r" unicode="r" horiz-adv-x="1427" 
d="M1666 1055q0 -245 -198 -452q-191 -199 -438 -240l362 -479l-331 -259l-530 701l-89 -334h-372l397 1483h757q190 0 314 -114q128 -118 128 -306zM1283 962q0 66 -45 107.5t-111 41.5h-385l-106 -395h385q95 0 178.5 76t83.5 170z" />
    <glyph glyph-name="s" unicode="s" horiz-adv-x="782" 
d="M1087 1556l-36 -370q-278 0 -305 -89q-9 -30 -9 -69q0 -84 64 -271.5t64 -293.5q0 -407 -561 -520q-114 -23 -212 -23l15 368q118 4 180 14q127 22 144 76q11 36 11 84q0 92 -64 273t-64 281q0 408 562 518q112 22 211 22z" />
    <glyph glyph-name="t" unicode="t" horiz-adv-x="1290" 
d="M1705 1475l-97 -362h-479l-298 -1113h-372l298 1113h-479l97 362h1330z" />
    <glyph glyph-name="u" unicode="u" horiz-adv-x="1382" 
d="M1750 1475l-222 -828q-73 -271 -315.5 -459t-522.5 -188q-222 0 -365 127q-150 133 -150 352q0 82 23 168l222 828h372l-222 -828q-10 -37 -10 -73q0 -96 65 -154t162 -58q122 0 230 83.5t140 201.5l222 828h371z" />
    <glyph glyph-name="v" unicode="v" horiz-adv-x="1104" 
d="M1823 1726l-1100 -1726h-379l-140 1362l381 126l95 -934l825 1294z" />
    <glyph glyph-name="w" unicode="w" horiz-adv-x="1696" 
d="M2413 1726l-1099 -1726h-380l-29 283l-182 -283h-379l-140 1362l381 126l98 -936l167 263l-58 547l383 126l15 -141l90 141l317 -126l-352 -547l27 -261l825 1294z" />
    <glyph glyph-name="x" unicode="x" horiz-adv-x="1245" 
d="M1626 1317l-571 -583l406 -899l-360 -210l-355 795l-491 -493l-247 207l595 600l-271 609l359 209l224 -501l464 475z" />
    <glyph glyph-name="y" unicode="y" horiz-adv-x="1194" 
d="M1794 1273l-1623 -1648l-247 210l646 655l-347 783l357 210l303 -674l662 674z" />
    <glyph glyph-name="z" unicode="z" horiz-adv-x="1475" 
d="M1812 1475l-984 -1113h671l-97 -362h-1345l984 1113h-671l97 362h1345z" />
    <glyph glyph-name="braceleft" unicode="{" horiz-adv-x="1106" 
d="M1518 1843l-107 -400h-369q-41 0 -52 -41l-103 -382q-38 -142 -186 -201q87 -44 87 -146q0 -25 -8 -55l-103 -382q-3 -11 -3 -16q0 -24 34 -24h369l-107 -399h-430q-130 0 -214 75q-88 78 -88 206q0 47 14 99l92 341q7 26 7 50q0 65 -51 101q-44 30 -113 30l65 241
q88 0 159.5 48.5t93.5 131.5l92 342q43 159 185 270t306 111h430z" />
    <glyph glyph-name="bar" unicode="|" horiz-adv-x="573" 
d="M985 1843l-548 -2046h-409l548 2046h409z" />
    <glyph glyph-name="braceright" unicode="}" horiz-adv-x="1106" 
d="M1357 940l-65 -241q-88 0 -157 -48q-73 -50 -95 -133l-92 -341q-42 -157 -185 -268.5t-305 -111.5h-430l107 399h369q40 0 51 40l103 382q38 143 185 201q-86 44 -86 145q0 26 8 56l103 382q3 11 3 18q0 23 -33 23h-369l107 400h430q128 0 213 -77q88 -80 88 -207
q0 -45 -14 -97l-92 -342q-6 -22 -6 -45q0 -135 162 -135z" />
    <glyph glyph-name="asciitilde" unicode="~" horiz-adv-x="1024" 
d="M1437 1656l-71 -264q-174 -102 -354 -102q-59 0 -146 46t-138 46q-165 0 -356 -110l71 265q176 101 354 101q59 0 145.5 -46t137.5 -46q167 0 357 110z" />
    <glyph glyph-name="Adieresis" unicode="&#xc4;" horiz-adv-x="1227" 
d="M1512 1919q0 -81 -72 -146.5t-154 -65.5q-57 0 -95 35t-38 92q0 82 71 148t154 66q57 0 95.5 -36t38.5 -93zM1082 1919q0 -81 -72 -146.5t-154 -65.5q-57 0 -95 35t-38 92q0 82 71 148t154 66q57 0 95.5 -36t38.5 -93zM1435 -277l-421 -136l-66 649h-588l-158 -248
l-346 138l968 1519h419zM913 597l-43 439l-280 -439h323z" />
    <glyph glyph-name="Aring" unicode="&#xc5;" horiz-adv-x="1227" 
d="M1340 1987q0 -106 -91 -190.5t-198 -84.5q-74 0 -123.5 45.5t-49.5 118.5q0 106 93 191q90 83 197 83q74 0 123 -45t49 -118zM1435 -277l-421 -136l-66 649h-588l-158 -248l-346 139l968 1519h419zM1192 1953q0 57 -61 57q-40 0 -72.5 -30.5t-32.5 -70.5q0 -57 62 -57
q39 0 71.5 31t32.5 70zM913 597l-43 440l-280 -440h323z" />
    <glyph glyph-name="Eacute" unicode="&#xc9;" horiz-adv-x="1434" 
d="M1839 2055l-93 -347h-706l8 133zM1792 1646l-107 -400h-860l-60 -222h655l-107 -401h-655l-60 -222h860l-107 -401h-1269l441 1646h1269z" />
    <glyph glyph-name="Ntilde" unicode="&#xd1;" 
d="M1881 2170l-77 -290q-176 -111 -357 -111q-59 0 -144.5 50.5t-135.5 50.5q-165 0 -360 -120l78 290q179 110 357 110q59 0 144 -50t136 -50q167 0 359 120zM1997 1647l-441 -1647h-399l-423 906l-243 -906h-409l441 1647h399l424 -905l242 905h409z" />
    <glyph glyph-name="Odieresis" unicode="&#xd6;" 
d="M1717 1919q0 -81 -71.5 -146t-153.5 -65q-57 0 -95.5 35t-38.5 92q0 81 71.5 147t153.5 66q57 0 95.5 -36t38.5 -93zM1287 1919q0 -81 -71.5 -146t-153.5 -65q-57 0 -95.5 35t-38.5 92q0 81 71.5 147t153.5 66q57 0 95.5 -36t38.5 -93zM1910 1040q0 -265 -164 -513
q-156 -234 -407 -379q-257 -148 -520 -148q-279 0 -460 164q-187 170 -187 446q0 403 345 723q337 313 743 313q345 0 527 -242q123 -164 123 -364zM1486 930q0 142 -95 229t-238 87q-209 0 -382 -162q-176 -165 -176 -373q0 -142 95 -228q92 -82 236 -82q208 0 382 160
q178 163 178 369z" />
    <glyph glyph-name="Udieresis" unicode="&#xdc;" horiz-adv-x="1536" 
d="M1666 1919q0 -81 -71.5 -146t-153.5 -65q-58 0 -96.5 34.5t-38.5 91.5q0 82 71.5 148t154.5 66q57 0 95.5 -36t38.5 -93zM1236 1919q0 -81 -71.5 -146t-153.5 -65q-58 0 -96.5 34.5t-38.5 91.5q0 82 71.5 148t154.5 66q57 0 95.5 -36t38.5 -93zM1946 1646l-247 -923
q-81 -300 -350 -511q-272 -212 -581 -212q-246 0 -404 144q-165 148 -165 391q0 91 26 188l247 923h409l-247 -923q-11 -41 -11 -84q0 -108 73 -174q70 -64 179 -64q137 0 258 94.5t157 227.5l247 923h409z" />
    <glyph glyph-name="aacute" unicode="&#xe1;" horiz-adv-x="1104" 
d="M1563 1850l-85 -317h-639l8 123zM1295 -248l-385 -124l-58 583h-527l-142 -223l-313 126l871 1367h379zM821 540l-41 385l-246 -385h287z" />
    <glyph glyph-name="agrave" unicode="&#xe0;" horiz-adv-x="1104" 
d="M1145 1656l-59 -123h-638l85 317zM1295 -248l-385 -124l-58 583h-527l-142 -223l-313 126l871 1367h379zM821 540l-41 385l-246 -385h287z" />
    <glyph glyph-name="acircumflex" unicode="&#xe2;" horiz-adv-x="1104" 
d="M1411 1726l-143 -198l-280 94l-332 -94l-37 198l350 117h156zM1295 -248l-385 -124l-58 583h-527l-142 -223l-313 126l871 1367h379zM821 540l-41 385l-246 -385h287z" />
    <glyph glyph-name="adieresis" unicode="&#xe4;" horiz-adv-x="1104" 
d="M1362 1726q0 -75 -65 -134t-141 -59q-51 0 -86 33t-35 84q0 73 65 133t139 60q53 0 88 -32.5t35 -84.5zM975 1726q0 -75 -65 -134t-141 -59q-51 0 -86 33t-35 84q0 73 65 133t139 60q53 0 88 -32.5t35 -84.5zM1295 -248l-385 -124l-58 583h-527l-142 -223l-313 126
l871 1367h379zM821 540l-41 385l-246 -385h287z" />
    <glyph glyph-name="atilde" unicode="&#xe3;" horiz-adv-x="1104" 
d="M1511 1955l-72 -267q-160 -100 -324 -100q-53 0 -129.5 45t-121.5 45q-149 0 -327 -109l72 266q162 100 323 100q53 0 130 -45t122 -45q151 0 327 110zM1295 -248l-385 -124l-58 583h-527l-142 -223l-313 127l871 1368h379zM821 540l-41 386l-246 -386h287z" />
    <glyph glyph-name="aring" unicode="&#xe5;" horiz-adv-x="1104" 
d="M1207 1788q0 -97 -82.5 -173.5t-180.5 -76.5q-67 0 -111.5 41.5t-44.5 107.5q0 95 83 171.5t179 76.5q68 0 112.5 -40t44.5 -107zM1295 -248l-385 -124l-58 583h-527l-142 -223l-313 127l871 1368h379zM1071 1755q0 50 -55 50q-33 0 -62 -26.5t-29 -59.5q0 -51 54 -51
q35 0 63.5 26t28.5 61zM821 540l-41 386l-246 -386h287z" />
    <glyph glyph-name="eacute" unicode="&#xe9;" horiz-adv-x="1290" 
d="M1657 1850l-85 -316h-638l7 123zM1615 1483l-97 -364h-774l-53 -196h590l-97 -364h-590l-52 -195h774l-98 -364h-1146l397 1483h1146z" />
    <glyph glyph-name="egrave" unicode="&#xe8;" horiz-adv-x="1290" 
d="M1239 1657l-58 -123h-638l85 316zM1615 1483l-97 -364h-774l-53 -196h590l-97 -364h-590l-52 -195h774l-98 -364h-1146l397 1483h1146z" />
    <glyph glyph-name="ecircumflex" unicode="&#xea;" horiz-adv-x="1290" 
d="M1504 1727l-143 -198l-281 94l-331 -94l-37 198l349 116h156zM1615 1483l-97 -364h-774l-53 -196h590l-97 -364h-590l-52 -195h774l-98 -364h-1146l397 1483h1146z" />
    <glyph glyph-name="edieresis" unicode="&#xeb;" horiz-adv-x="1290" 
d="M1454 1726q0 -75 -65 -133.5t-140 -58.5q-52 0 -87 32.5t-35 83.5q0 74 65.5 133.5t139.5 59.5q52 0 87 -32.5t35 -84.5zM1067 1726q0 -75 -65 -133.5t-140 -58.5q-52 0 -87 32.5t-35 83.5q0 74 65.5 133.5t139.5 59.5q52 0 87 -32.5t35 -84.5zM1615 1483l-97 -364h-774
l-53 -196h590l-97 -364h-590l-52 -195h774l-98 -364h-1146l397 1483h1146z" />
    <glyph glyph-name="iacute" unicode="&#xed;" horiz-adv-x="516" 
d="M1270 1850l-85 -316h-638l7 123zM841 1483l-397 -1483h-372l397 1483h372z" />
    <glyph glyph-name="igrave" unicode="&#xec;" horiz-adv-x="516" 
d="M852 1657l-58 -123h-636l85 316zM841 1483l-397 -1483h-372l397 1483h372z" />
    <glyph glyph-name="icircumflex" unicode="&#xee;" horiz-adv-x="516" 
d="M1117 1727l-143 -198l-281 94l-329 -94l-37 198l347 116h156zM841 1483l-397 -1483h-372l397 1483h372z" />
    <glyph glyph-name="idieresis" unicode="&#xef;" horiz-adv-x="516" 
d="M1067 1726q0 -75 -65 -133.5t-140 -58.5q-52 0 -87 32.5t-35 83.5q0 74 65.5 133.5t139.5 59.5q52 0 87 -32.5t35 -84.5zM680 1726q0 -75 -65 -133.5t-141 -58.5q-51 0 -85 33t-34 83q0 72 64.5 132.5t137.5 60.5q53 0 88 -32.5t35 -84.5zM841 1483l-397 -1483h-372
l397 1483h372z" />
    <glyph glyph-name="ntilde" unicode="&#xf1;" horiz-adv-x="1475" 
d="M1695 1955l-71 -266q-161 -100 -324 -100q-53 0 -130 45t-122 45q-148 0 -326 -110l72 266q159 100 322 100q52 0 129.5 -45t122.5 -45q150 0 327 110zM1800 1484l-398 -1484h-361l-380 809l-217 -809h-372l398 1484h362l380 -810l217 810h371z" />
    <glyph glyph-name="oacute" unicode="&#xf3;" horiz-adv-x="1475" 
d="M1749 1850l-85 -316h-638l7 123zM1720 928q0 -361 -313 -648q-306 -280 -670 -280q-253 0 -416 146q-169 152 -169 401q0 364 311 653q304 283 671 283q251 0 416 -151q170 -155 170 -404zM1335 839q0 127 -86 205q-83 75 -212 75q-186 0 -341 -144q-158 -147 -158 -331
q0 -127 86 -205q83 -75 211 -75q186 0 341 143q159 147 159 332z" />
    <glyph glyph-name="ograve" unicode="&#xf2;" horiz-adv-x="1475" 
d="M1331 1657l-58 -123h-638l85 316zM1720 928q0 -361 -313 -648q-306 -280 -670 -280q-253 0 -416 146q-169 152 -169 401q0 364 311 653q304 283 671 283q251 0 416 -151q170 -155 170 -404zM1335 839q0 127 -86 205q-83 75 -212 75q-186 0 -341 -144q-158 -147 -158 -331
q0 -127 86 -205q83 -75 211 -75q186 0 341 143q159 147 159 332z" />
    <glyph glyph-name="ocircumflex" unicode="&#xf4;" horiz-adv-x="1475" 
d="M1596 1727l-143 -198l-281 94l-331 -94l-36 198l349 116h155zM1720 928q0 -361 -313 -648q-306 -280 -670 -280q-253 0 -416 146q-169 152 -169 401q0 364 311 653q304 283 671 283q251 0 416 -151q170 -155 170 -404zM1335 839q0 127 -86 205q-83 75 -212 75
q-186 0 -341 -144q-158 -147 -158 -331q0 -127 86 -205q83 -75 211 -75q186 0 341 143q159 147 159 332z" />
    <glyph glyph-name="odieresis" unicode="&#xf6;" horiz-adv-x="1475" 
d="M1546 1726q0 -75 -65 -133.5t-140 -58.5q-51 0 -86 32.5t-35 83.5q0 73 65 133t139 60q52 0 87 -32.5t35 -84.5zM1159 1726q0 -75 -65 -133.5t-140 -58.5q-51 0 -86 32.5t-35 83.5q0 73 65 133t139 60q52 0 87 -32.5t35 -84.5zM1720 928q0 -361 -313 -648
q-306 -280 -670 -280q-253 0 -416 146q-169 152 -169 401q0 364 311 653q304 283 671 283q251 0 416 -151q170 -155 170 -404zM1335 839q0 127 -86 205q-83 75 -212 75q-186 0 -341 -144q-158 -147 -158 -331q0 -127 86 -205q83 -75 211 -75q186 0 341 143q159 147 159 332z
" />
    <glyph glyph-name="otilde" unicode="&#xf5;" horiz-adv-x="1475" 
d="M1695 1955l-71 -266q-161 -100 -324 -100q-53 0 -130 45t-122 45q-148 0 -326 -110l72 266q159 100 322 100q52 0 129.5 -45t122.5 -45q150 0 327 110zM1720 930q0 -361 -313 -649q-305 -281 -670 -281q-253 0 -416 146q-169 152 -169 402q0 364 311 653q305 283 672 283
q251 0 416 -150q169 -155 169 -404zM1335 840q0 127 -86 205q-83 75 -212 75q-186 0 -341 -144q-158 -147 -158 -331q0 -127 86 -205q83 -76 211 -76q186 0 343 145.5t157 330.5z" />
    <glyph glyph-name="uacute" unicode="&#xfa;" horiz-adv-x="1382" 
d="M1704 1850l-85 -316h-640l7 123zM1752 1483l-223 -832q-73 -272 -315.5 -461.5t-523.5 -189.5q-222 0 -365 128q-149 134 -149 353q0 84 23 170l223 832h372l-223 -832q-10 -37 -10 -73q0 -96 65 -155t162 -59q122 0 230 84.5t140 202.5l223 832h371z" />
    <glyph glyph-name="ugrave" unicode="&#xf9;" horiz-adv-x="1382" 
d="M1286 1657l-58 -123h-640l85 316zM1752 1483l-223 -832q-73 -272 -315.5 -461.5t-523.5 -189.5q-222 0 -365 128q-149 134 -149 353q0 84 23 170l223 832h372l-223 -832q-10 -37 -10 -73q0 -96 65 -155t162 -59q122 0 230 84.5t140 202.5l223 832h371z" />
    <glyph glyph-name="ucircumflex" unicode="&#xfb;" horiz-adv-x="1382" 
d="M1549 1727l-143 -198l-281 94l-331 -94l-36 198l348 116h156zM1752 1483l-223 -832q-73 -272 -315.5 -461.5t-523.5 -189.5q-222 0 -365 128q-149 134 -149 353q0 84 23 170l223 832h372l-223 -832q-10 -37 -10 -73q0 -96 65 -155t162 -59q122 0 230 84.5t140 202.5
l223 832h371z" />
    <glyph glyph-name="udieresis" unicode="&#xfc;" horiz-adv-x="1382" 
d="M1500 1727q0 -75 -64 -134t-140 -59q-52 0 -88 32.5t-36 83.5q0 74 66 133.5t141 59.5q52 0 86.5 -32t34.5 -84zM1112 1727q0 -74 -64 -133.5t-139 -59.5q-52 0 -88 32.5t-36 83.5q0 74 66 133.5t141 59.5q52 0 86 -32t34 -84zM1752 1483l-223 -832
q-73 -272 -315.5 -461.5t-523.5 -189.5q-222 0 -365 128q-149 134 -149 353q0 84 23 170l223 832h372l-223 -832q-10 -37 -10 -73q0 -96 65 -155t162 -59q122 0 230 84.5t140 202.5l223 832h371z" />
    <glyph glyph-name="degree" unicode="&#xb0;" horiz-adv-x="508" 
d="M869 1485q0 -101 -93 -178q-89 -74 -192 -74q-72 0 -122 40q-53 44 -53 114q0 101 93 178q88 73 191 73q72 0 122 -40q54 -43 54 -113zM722 1454q0 55 -64 55q-38 0 -70 -27t-32 -65q0 -55 63 -55q37 0 70 28t33 64z" />
    <glyph glyph-name="cent" unicode="&#xa2;" horiz-adv-x="1085" 
d="M1450 1479l-87 -327h-347q-166 0 -303 -127q-140 -130 -140 -294q0 -112 77 -180q73 -64 187 -64h347l-87 -327h-338l-43 -160h-263l56 210q-134 60 -208 176.5t-74 264.5q0 253 186 478q173 209 423 300l56 209h263l-43 -159h338z" />
    <glyph glyph-name="bullet" unicode="&#x2022;" horiz-adv-x="1126" 
d="M1332 953q0 -255 -218 -453q-212 -193 -469 -193q-176 0 -292 101q-121 106 -121 280q0 253 219 451q213 192 469 192q177 0 291 -99q121 -105 121 -279z" />
    <glyph glyph-name="paragraph" unicode="&#xb6;" horiz-adv-x="1741" 
d="M2200 1638l-107 -398h-205l-332 -1240h-409l332 1240h-123l-332 -1240h-409l107 401q-204 6 -336 130q-135 128 -135 330q0 303 262 543q255 234 561 234h1126zM947 1239q-103 -9 -186 -91q-87 -84 -87 -185q0 -68 43.5 -113t111.5 -51z" />
    <glyph glyph-name="registered" unicode="&#xae;" horiz-adv-x="717" 
d="M778 383q0 -152 -135 -270q-131 -113 -285 -113q-107 0 -180 60q-76 65 -76 170q0 153 136 270q130 114 285 114q107 0 179 -61q76 -65 76 -170zM627 349q0 58 -41 93t-100 35q-27 0 -58 -9q93 0 121 -8q67 -18 67 -87q0 -48 -38 -92q-34 -39 -83 -57l34 -42
q98 66 98 167zM504 352q0 15 -23 15h-64l-13 -49h66q34 0 34 34zM316 399q-60 -63 -60 -137q0 -29 10 -51zM409 140l-39 49l-13 -46q15 -3 35 -3h17zM357 143q-38 8 -64 33l-22 -33h86z" />
    <glyph glyph-name="copyright" unicode="&#xa9;" horiz-adv-x="717" 
d="M778 383q0 -152 -135 -270q-131 -113 -285 -113q-107 0 -180 60q-76 65 -76 170q0 153 136 270q130 114 285 114q107 0 179 -61q76 -65 76 -170zM627 349q0 58 -41 93t-100 35q-83 0 -155 -63q-75 -66 -75 -148q0 -57 41 -91.5t99 -34.5q84 0 157.5 63t73.5 146zM582 470
l-28 -103q-10 0 -31 1t-32 1q-117 0 -117 -79q0 -38 60 -44q-3 1 88 1l-27 -102h-98q-56 0 -95.5 33.5t-39.5 89.5q0 79 72 142q70 60 150 60h98z" />
    <glyph glyph-name="trademark" unicode="&#x2122;" horiz-adv-x="1247" 
d="M1523 1638l-64 -741l-182 -30l38 458l-205 -270l-60 270l-148 -325l-168 29l201 441h-132l-122 -454h-177l122 454h-201l45 168h707l40 -184l139 184h167z" />
    <glyph glyph-name="acute" unicode="&#xb4;" horiz-adv-x="793" 
d="M1311 2054l-84 -313h-705l5 120z" />
    <glyph glyph-name="dieresis" unicode="&#xa8;" horiz-adv-x="840" 
d="M1320 1930q0 -76 -70.5 -132.5t-148.5 -56.5q-56 0 -95 30q-43 33 -43 87q0 77 73 135q69 55 148 55q55 0 95.5 -32t40.5 -86zM890 1930q0 -76 -70.5 -132.5t-148.5 -56.5q-56 0 -95 30q-43 33 -43 87q0 77 73 135q69 55 148 55q55 0 95.5 -32t40.5 -86z" />
    <glyph glyph-name="AE" unicode="&#xc6;" horiz-adv-x="2327" 
d="M2683 1638l-107 -400h-860l-60 -222h655l-107 -401h-655l-60 -222h860l-107 -401h-835l28 -270l-421 -135l-67 646h-588l-157 -246l-347 138l967 1513h419l47 -470l126 470h1269zM912 593l-44 438l-279 -438h323z" />
    <glyph glyph-name="Oslash" unicode="&#xd8;" 
d="M2035 1379l-168 -130q39 -105 39 -222q0 -263 -165 -507q-155 -231 -406 -374q-255 -146 -516 -146q-239 0 -406 122l-169 -130l-202 268l167 130q-39 104 -39 221q0 263 165 507q156 231 407 374q255 146 516 146q238 0 407 -123l169 131zM1279 1217q-64 23 -128 23
q-206 0 -379 -158q-177 -162 -177 -365q0 -12 1 -28zM1483 923q0 14 -1 27l-684 -529q64 -22 128 -22q206 0 379 158q178 162 178 366z" />
    <glyph glyph-name="plusminus" unicode="&#xb1;" horiz-adv-x="1126" 
d="M1340 1105l-85 -318h-317l-83 -309h-327l83 309h-318l85 318h318l83 308h327l-83 -308h317zM1129 318l-85 -318h-962l85 318h962z" />
    <glyph glyph-name="yen" unicode="&#xa5;" horiz-adv-x="1481" 
d="M1991 1417l-566 -573h265l-83 -312h-488l-17 -62h463l-85 -316h-463l-41 -154h-482l41 154h-475l85 316h475l17 62h-475l83 312h260l-253 573l393 229l335 -747l738 747z" />
    <glyph glyph-name="ae" unicode="&#xe6;" horiz-adv-x="2093" 
d="M2416 1475l-97 -364h-774l-53 -196h590l-97 -364h-590l-53 -195h774l-97 -364h-750l25 -241l-384 -123l-59 580h-527l-141 -221l-314 126l870 1362h379l42 -413l110 413h1146zM820 536l-41 385l-246 -385h287z" />
    <glyph glyph-name="oslash" unicode="&#xf8;" horiz-adv-x="1475" 
d="M1835 1239l-152 -117q35 -92 35 -197q0 -360 -312 -646q-305 -279 -669 -279q-216 0 -365 110l-153 -118l-184 243l153 118q-36 94 -36 202q0 358 313 643q305 277 667 277q216 0 366 -110l152 118zM1148 1094q-55 19 -113 19q-186 0 -343 -142q-161 -146 -156 -328
l1 -19zM1333 831q0 6 -1 21l-609 -472q54 -18 111 -18q185 0 340 141q159 145 159 328z" />
    <glyph glyph-name="questiondown" unicode="&#xbf;" horiz-adv-x="1489" 
d="M1561 1489q0 -96 -83.5 -173.5t-180.5 -77.5q-67 0 -113 42.5t-46 109.5q0 95 86 173q83 75 180 75q68 0 112.5 -41t44.5 -108zM1512 -17q-152 -180 -378.5 -285.5t-462.5 -105.5q-251 0 -436 123q-211 141 -211 380q0 70 21 148q78 291 370 480q271 175 587 182l57 211
h409l-163 -608h-389q-136 0 -252 -65q-128 -73 -165 -194q-8 -26 -8 -60q0 -100 98 -153q80 -43 189 -43q228 0 370 158z" />
    <glyph glyph-name="exclamdown" unicode="&#xa1;" horiz-adv-x="573" 
d="M883 1489q0 -96 -83.5 -173.5t-180.5 -77.5q-67 0 -113 42.5t-46 109.5q0 95 86 173q83 75 180 75q68 0 112.5 -41t44.5 -108zM790 1116l-408 -1524h-409l408 1524h409z" />
    <glyph glyph-name="guillemotleft" unicode="&#xab;" horiz-adv-x="1198" 
d="M1516 1229l-432 -410l213 -409h-419l-213 409l432 410h419zM1045 1229l-432 -410l213 -409h-419l-213 409l432 410h419z" />
    <glyph glyph-name="guillemotright" unicode="&#xbb;" horiz-adv-x="1198" 
d="M1442 819l-431 -409h-419l431 409l-212 410h419zM971 819l-431 -409h-419l431 409l-212 410h419z" />
    <glyph glyph-name="ellipsis" unicode="&#x2026;" horiz-adv-x="1290" 
d="M1314 229q0 -92 -85 -162q-80 -67 -174 -67q-65 0 -112 38q-50 40 -50 104q0 91 86 161q82 66 175 66q66 0 111 -36q49 -40 49 -104zM904 229q0 -92 -85 -162q-80 -67 -174 -67q-65 0 -111 38q-50 40 -50 104q0 90 86 161q82 66 174 66q66 0 111 -36q49 -40 49 -104z
M495 229q0 -92 -85 -162q-80 -67 -174 -67q-65 0 -112 38q-50 40 -50 104q0 91 86 161q82 66 175 66q66 0 111 -36q49 -40 49 -104z" />
    <glyph glyph-name="nonbreakingspace" unicode="&#xa0;" horiz-adv-x="922" 
 />
    <glyph glyph-name="Agrave" unicode="&#xc0;" horiz-adv-x="1227" 
d="M1270 1840l-64 -133h-706l94 348zM1435 -277l-421 -136l-66 649h-588l-158 -248l-346 138l968 1519h419zM913 597l-43 439l-280 -439h323z" />
    <glyph glyph-name="Atilde" unicode="&#xc3;" horiz-adv-x="1227" 
d="M1676 2170l-78 -291q-175 -111 -356 -111q-59 0 -144.5 50.5t-135.5 50.5q-166 0 -360 -121l79 292q177 110 356 110q59 0 144 -50t136 -50q167 0 359 120zM1435 -277l-421 -136l-66 649h-588l-158 -248l-346 139l968 1519h419zM913 597l-43 440l-280 -440h323z" />
    <glyph glyph-name="Otilde" unicode="&#xd5;" 
d="M1881 2170l-77 -290q-176 -111 -357 -111q-59 0 -144.5 50.5t-135.5 50.5q-165 0 -360 -120l78 290q179 110 357 110q59 0 144 -50t136 -50q167 0 359 120zM1910 1041q0 -265 -164 -513q-156 -234 -407 -380q-257 -148 -520 -148q-280 0 -460 164q-187 169 -187 446
q0 403 345 723q337 314 743 314q345 0 527 -242q123 -164 123 -364zM1486 931q0 142 -95 229t-238 87q-209 0 -382 -162q-176 -164 -176 -372q0 -142 96 -228q92 -83 236 -83q208 0 381 160q178 163 178 369z" />
    <glyph glyph-name="OE" unicode="&#x152;" horiz-adv-x="2601" 
d="M2958 1638l-107 -398h-861l-59 -221h656l-107 -399h-656l-59 -221h861l-107 -399h-1269l31 116q-229 -116 -462 -116q-279 0 -461 163q-188 169 -188 445q0 401 346 719q337 311 742 311q233 0 400 -116l31 116h1269zM1484 926q0 141 -97 229q-93 85 -236 85
q-209 0 -382 -160q-176 -164 -176 -371q0 -142 97 -228q92 -82 236 -82q207 0 381 159q177 163 177 368z" />
    <glyph glyph-name="oe" unicode="&#x153;" horiz-adv-x="2341" 
d="M2664 1475l-97 -362h-774l-52 -195h589l-97 -362h-589l-52 -194h774l-97 -362h-1146l27 102q-205 -102 -413 -102q-252 0 -416 145q-170 151 -170 400q0 363 311 649q304 281 670 281q208 0 359 -102l27 102h1146zM1333 834q0 127 -87 204q-83 75 -211 75
q-185 0 -340 -142q-159 -146 -159 -330q0 -126 87 -204q83 -75 211 -75q186 0 341 142q158 146 158 330z" />
    <glyph glyph-name="endash" unicode="&#x2013;" horiz-adv-x="1024" 
d="M1200 963l-77 -287h-860l77 287h860z" />
    <glyph glyph-name="emdash" unicode="&#x2014;" horiz-adv-x="1331" 
d="M1507 963l-77 -287h-1167l77 287h1167z" />
    <glyph glyph-name="quotedblleft" unicode="&#x201c;" horiz-adv-x="881" 
d="M1193 1304q0 -94 -84 -166.5t-179 -72.5q-66 0 -112 40.5t-46 105.5q0 103 121 261q126 165 224 166q-82 -97 -82 -148q0 -23 9 -43q64 -3 106.5 -42t42.5 -101zM784 1303q0 -94 -86 -167q-82 -71 -177 -71q-66 0 -111 40q-48 41 -48 106q0 104 121 262q127 165 226 165
q-84 -98 -84 -151q0 -20 9 -40q64 -3 107 -42t43 -102z" />
    <glyph glyph-name="quotedblright" unicode="&#x201d;" horiz-adv-x="881" 
d="M1243 1494q0 -104 -121 -263q-127 -166 -226 -166q84 98 84 149q0 23 -9 43q-62 3 -105 43.5t-43 101.5q0 92 85 166q82 70 176 70q67 0 113 -39t46 -105zM834 1494q0 -103 -121 -263q-126 -166 -225 -166q82 97 82 150q0 23 -8 42q-63 3 -106 43t-43 102q0 93 86 166
q82 70 176 70q67 0 113 -39t46 -105z" />
    <glyph glyph-name="quoteleft" unicode="&#x2018;" horiz-adv-x="471" 
d="M784 1303q0 -94 -86 -167q-82 -71 -177 -71q-66 0 -111 40q-48 41 -48 106q0 104 121 262q127 165 226 165q-84 -98 -84 -151q0 -20 9 -40q64 -3 107 -42t43 -102z" />
    <glyph glyph-name="quoteright" unicode="&#x2019;" horiz-adv-x="471" 
d="M834 1494q0 -103 -121 -263q-126 -166 -225 -166q82 97 82 150q0 23 -8 42q-63 3 -106 43t-43 102q0 93 86 166q82 70 176 70q67 0 113 -39t46 -105z" />
    <glyph glyph-name="divide" unicode="&#xf7;" horiz-adv-x="1126" 
d="M1069 1296q0 -78 -66.5 -138.5t-145.5 -60.5q-54 0 -90.5 32.5t-36.5 85.5q0 78 68 139q65 59 144 59q54 0 90.5 -32t36.5 -85zM1306 978l-85 -317h-962l85 317h962zM836 425q0 -78 -67 -139t-146 -61q-54 0 -90 32.5t-36 85.5q0 78 66 138t145 60q54 0 90 -30
q38 -33 38 -86z" />
    <glyph glyph-name="ydieresis" unicode="&#xff;" horiz-adv-x="1194" 
d="M1481 1726q0 -75 -65 -134t-141 -59q-52 0 -86.5 32.5t-34.5 83.5q0 74 64.5 134t139.5 60q53 0 88 -32.5t35 -84.5zM1093 1726q0 -75 -65 -134t-140 -59q-52 0 -86.5 32.5t-34.5 83.5q0 74 64.5 134t139.5 60q52 0 87 -32.5t35 -84.5zM1796 1279l-1625 -1654l-247 211
l647 657l-346 786l357 210l302 -676l663 676z" />
    <glyph glyph-name="Ydieresis" unicode="&#x178;" horiz-adv-x="1327" 
d="M1643 1920q0 -82 -71 -147.5t-154 -65.5q-57 0 -95.5 35t-38.5 92q0 82 71.5 148t154.5 66q57 0 95 -35.5t38 -92.5zM1213 1919q0 -81 -72 -146.5t-154 -65.5q-57 0 -95 35t-38 92q0 82 71 148t154 66q57 0 95.5 -36t38.5 -93zM1992 1422l-1803 -1838l-271 231l719 734
l-384 873l394 230l333 -752l740 752z" />
    <glyph glyph-name="guilsinglleft" unicode="&#x2039;" horiz-adv-x="727" 
d="M1045 1229l-432 -410l213 -409h-419l-213 409l432 410h419z" />
    <glyph glyph-name="guilsinglright" unicode="&#x203a;" horiz-adv-x="727" 
d="M971 819l-431 -409h-419l431 409l-212 410h419z" />
    <glyph glyph-name="periodcentered" unicode="&#xb7;" horiz-adv-x="471" 
d="M665 864q0 -92 -85 -162q-80 -67 -174 -67q-65 0 -112 38q-50 40 -50 104q0 91 86 161q82 66 175 66q66 0 111 -36q49 -40 49 -104z" />
    <glyph glyph-name="periodcentered" unicode="&#x2219;" horiz-adv-x="471" 
d="M665 864q0 -92 -85 -162q-80 -67 -174 -67q-65 0 -112 38q-50 40 -50 104q0 91 86 161q82 66 175 66q66 0 111 -36q49 -40 49 -104z" />
    <glyph glyph-name="quotesinglbase" unicode="&#x201a;" horiz-adv-x="471" 
d="M494 225q0 -103 -121 -262q-125 -166 -224 -166q82 97 82 152q0 20 -8 38q-63 3 -107 43.5t-44 102.5q0 93 86 166q83 70 177 70q67 0 113 -39t46 -105z" />
    <glyph glyph-name="quotedblbase" unicode="&#x201e;" horiz-adv-x="881" 
d="M903 225q0 -104 -121 -262q-126 -166 -225 -166q84 98 84 151q0 20 -9 39q-63 3 -105 43q-45 41 -45 103q0 92 86 166q82 70 176 70q67 0 113 -39t46 -105zM494 225q0 -103 -121 -262q-125 -166 -224 -166q82 97 82 152q0 20 -8 38q-63 3 -107 43.5t-44 102.5
q0 93 86 166q83 70 177 70q67 0 113 -39t46 -105z" />
    <glyph glyph-name="perthousand" unicode="&#x2030;" horiz-adv-x="2830" 
d="M2926 524q0 -205 -177 -368q-173 -160 -380 -160q-144 0 -236 82q-96 86 -96 228q0 208 176 372q173 161 382 161q142 0 236.5 -87t94.5 -228zM2066 524q0 -205 -175.5 -366.5t-382.5 -161.5q-144 0 -236 83q-95 86 -95 228q0 207 176 371q172 161 381 161q142 0 237 -87
t95 -228zM1994 1712l-1230 -1923l-349 138l1230 1923zM1232 1330q0 -207 -174.5 -369t-382.5 -162q-144 0 -236 82q-96 86 -96 228q0 208 176 372q172 161 382 161q143 0 235 -84q96 -87 96 -228zM2630 454q0 47 -31.5 75.5t-78.5 28.5q-69 0 -128 -54t-59 -122
q0 -47 31.5 -76t79.5 -29q69 0 127.5 54.5t58.5 122.5zM1770 454q0 47 -32 75.5t-79 28.5q-68 0 -127 -54t-59 -122q0 -47 31.5 -76t78.5 -29q69 0 128 54.5t59 122.5zM937 1257q0 47 -31.5 76t-79.5 29q-68 0 -127.5 -54t-59.5 -121q0 -47 32 -77t79 -30q69 0 128 54.5
t59 122.5z" />
    <glyph glyph-name="Acircumflex" unicode="&#xc2;" horiz-adv-x="1227" 
d="M1565 1918l-156 -216l-311 104l-366 -104l-40 216l385 130h172zM1435 -277l-421 -136l-66 649h-588l-158 -248l-346 138l968 1519h419zM913 597l-43 439l-280 -439h323z" />
    <glyph glyph-name="Ecircumflex" unicode="&#xca;" horiz-adv-x="1434" 
d="M1667 1919l-156 -216l-310 104l-367 -104l-40 216l386 129h172zM1792 1646l-107 -400h-860l-60 -222h655l-107 -401h-655l-60 -222h860l-107 -401h-1269l441 1646h1269z" />
    <glyph glyph-name="Aacute" unicode="&#xc1;" horiz-adv-x="1227" 
d="M1734 2055l-94 -348h-705l8 133zM1435 -277l-421 -136l-66 649h-588l-158 -248l-346 138l968 1519h419zM913 597l-43 439l-280 -439h323z" />
    <glyph glyph-name="Edieresis" unicode="&#xcb;" horiz-adv-x="1434" 
d="M1614 1920q0 -82 -70.5 -147t-153.5 -65q-58 0 -96.5 34.5t-38.5 91.5q0 82 71.5 148t154.5 66q57 0 95 -35.5t38 -92.5zM1184 1920q0 -82 -70.5 -147t-153.5 -65q-58 0 -96.5 34.5t-38.5 91.5q0 82 71.5 148t154.5 66q57 0 95 -35.5t38 -92.5zM1792 1646l-107 -400h-860
l-60 -222h655l-107 -401h-655l-60 -222h860l-107 -401h-1269l441 1646h1269z" />
    <glyph glyph-name="Egrave" unicode="&#xc8;" horiz-adv-x="1434" 
d="M1374 1841l-62 -133h-706l93 347zM1792 1646l-107 -400h-860l-60 -222h655l-107 -401h-655l-60 -222h860l-107 -401h-1269l441 1646h1269z" />
    <glyph glyph-name="Iacute" unicode="&#xcd;" horiz-adv-x="573" 
d="M1409 2055l-93 -347h-706l7 133zM932 1646l-441 -1646h-409l441 1646h409z" />
    <glyph glyph-name="Icircumflex" unicode="&#xce;" horiz-adv-x="573" 
d="M1237 1919l-156 -216l-310 104l-365 -104l-40 216l384 129h172zM932 1646l-441 -1646h-409l441 1646h409z" />
    <glyph glyph-name="Idieresis" unicode="&#xcf;" horiz-adv-x="573" 
d="M1184 1920q0 -82 -70.5 -147t-153.5 -65q-58 0 -96.5 34.5t-38.5 91.5q0 82 71.5 148t154.5 66q57 0 95 -35.5t38 -92.5zM754 1920q0 -82 -71 -147t-153 -65q-57 0 -95 35.5t-38 91.5q0 81 71 147t153 66q57 0 95 -35.5t38 -92.5zM932 1646l-441 -1646h-409l441 1646h409
z" />
    <glyph glyph-name="Igrave" unicode="&#xcc;" horiz-adv-x="573" 
d="M944 1841l-62 -133h-704l93 347zM932 1646l-441 -1646h-409l441 1646h409z" />
    <glyph glyph-name="Oacute" unicode="&#xd3;" 
d="M1941 2055l-93 -347h-706l8 133zM1910 1040q0 -265 -164 -513q-156 -234 -407 -379q-257 -148 -520 -148q-279 0 -460 164q-187 170 -187 446q0 403 345 723q337 313 743 313q345 0 527 -242q123 -164 123 -364zM1486 930q0 142 -95 229t-238 87q-209 0 -382 -162
q-176 -165 -176 -373q0 -142 95 -228q92 -82 236 -82q208 0 382 160q178 163 178 369z" />
    <glyph glyph-name="Ocircumflex" unicode="&#xd4;" 
d="M1770 1919l-156 -216l-311 104l-366 -104l-40 216l385 129h172zM1910 1040q0 -265 -164 -513q-156 -234 -407 -379q-257 -148 -520 -148q-279 0 -460 164q-187 170 -187 446q0 403 345 723q337 313 743 313q345 0 527 -242q123 -164 123 -364zM1486 930q0 142 -95 229
t-238 87q-209 0 -382 -162q-176 -165 -176 -373q0 -142 95 -228q92 -82 236 -82q208 0 382 160q178 163 178 369z" />
    <glyph glyph-name="Ograve" unicode="&#xd2;" 
d="M1477 1841l-63 -133h-706l93 347zM1910 1040q0 -265 -164 -513q-156 -234 -407 -379q-257 -148 -520 -148q-279 0 -460 164q-187 170 -187 446q0 403 345 723q337 313 743 313q345 0 527 -242q123 -164 123 -364zM1486 930q0 142 -95 229t-238 87q-209 0 -382 -162
q-176 -165 -176 -373q0 -142 95 -228q92 -82 236 -82q208 0 382 160q178 163 178 369z" />
    <glyph glyph-name="Uacute" unicode="&#xda;" horiz-adv-x="1536" 
d="M1890 2055l-93 -347h-706l8 133zM1946 1646l-247 -923q-81 -300 -350 -511q-272 -212 -581 -212q-246 0 -404 144q-165 148 -165 391q0 91 26 188l247 923h409l-247 -923q-11 -41 -11 -84q0 -108 73 -174q70 -64 179 -64q137 0 258 94.5t157 227.5l247 923h409z" />
    <glyph glyph-name="Ucircumflex" unicode="&#xdb;" horiz-adv-x="1536" 
d="M1719 1919l-156 -216l-311 104l-367 -104l-40 216l386 129h172zM1946 1646l-247 -923q-81 -300 -350 -511q-272 -212 -581 -212q-246 0 -404 144q-165 148 -165 391q0 91 26 188l247 923h409l-247 -923q-11 -41 -11 -84q0 -108 73 -174q70 -64 179 -64q137 0 258 94.5
t157 227.5l247 923h409z" />
    <glyph glyph-name="Ugrave" unicode="&#xd9;" horiz-adv-x="1536" 
d="M1425 1841l-62 -133h-706l93 347zM1946 1646l-247 -923q-81 -300 -350 -511q-272 -212 -581 -212q-246 0 -404 144q-165 148 -165 391q0 91 26 188l247 923h409l-247 -923q-11 -41 -11 -84q0 -108 73 -174q70 -64 179 -64q137 0 258 94.5t157 227.5l247 923h409z" />
    <glyph glyph-name="circumflex" unicode="&#x2c6;" horiz-adv-x="922" 
d="M1414 1931l-150 -194l-313 93l-364 -93l-46 194l383 117h172z" />
    <glyph glyph-name="tilde" unicode="&#x2dc;" horiz-adv-x="1024" 
d="M1574 2168l-71 -265q-172 -101 -354 -101q-59 0 -146 46t-138 46q-165 0 -356 -110l71 265q176 101 354 101q59 0 145.5 -46t137.5 -46q167 0 357 110z" />
    <glyph glyph-name="macron" unicode="&#xaf;" horiz-adv-x="1126" 
d="M1483 1638l-77 -286h-962l77 286h962z" />
    <glyph glyph-name="macron" unicode="&#x2c9;" horiz-adv-x="1126" 
d="M1483 1638l-77 -286h-962l77 286h962z" />
    <glyph glyph-name="Scaron" unicode="&#x160;" horiz-adv-x="870" 
d="M1392 1938l-385 -129h-172l-316 129l156 216l311 -103l366 103zM1210 1739l-43 -412q-304 1 -338 -102q-10 -31 -10 -81q0 -94 70 -301.5t70 -325.5q0 -304 -291 -466q-228 -128 -565 -142l18 410q127 2 201 15q140 24 160 87q12 37 12 92q0 101 -70.5 305.5t-70.5 317.5
q0 297 294 461q234 131 563 142z" />
    <glyph glyph-name="scaron" unicode="&#x161;" horiz-adv-x="782" 
d="M1256 1742l-350 -117h-156l-286 116l143 198l281 -93l331 93zM1089 1563l-37 -371q-277 0 -304 -89q-9 -30 -9 -70q0 -85 63 -272.5t63 -293.5q0 -411 -561 -524q-114 -23 -212 -23l16 370q119 4 180 14q127 22 144 76q11 35 11 85q0 92 -64 274t-64 283q0 408 563 519
q112 22 211 22z" />
    <glyph glyph-name="Yacute" unicode="&#xdd;" horiz-adv-x="1327" 
d="M1785 2055l-94 -348h-705l8 133zM1992 1422l-1803 -1838l-271 231l719 734l-384 873l394 230l333 -752l740 752z" />
    <glyph glyph-name="yacute" unicode="&#xfd;" horiz-adv-x="1194" 
d="M1610 1850l-85 -317h-641l8 123zM1796 1279l-1625 -1654l-247 211l647 657l-346 786l357 210l302 -676l663 676z" />
    <glyph glyph-name="minus" unicode="&#xad;" horiz-adv-x="1126" 
d="M1302 963l-77 -287h-962l77 287h962z" />
    <glyph glyph-name="minus" unicode="&#x2212;" horiz-adv-x="1126" 
d="M1302 963l-77 -287h-962l77 287h962z" />
    <glyph glyph-name="multiply" unicode="&#xd7;" horiz-adv-x="1061" 
d="M1263 1034l-283 -215l168 -215l-289 -221l-169 215l-282 -215l-172 221l283 215l-168 215l290 221l168 -215l283 215z" />
    <glyph glyph-name=".null" unicode="&#xe001;" horiz-adv-x="0" 
 />
    <glyph glyph-name="nonmarkingreturn" unicode="&#xe002;" horiz-adv-x="922" 
 />
  </font>
</defs>
</svg>
