<svg xmlns="http://www.w3.org/2000/svg" xmlns:xlink="http://www.w3.org/1999/xlink" viewBox="0 0 456 90" preserveAspectRatio="xMidYMid" style="display: block; shape-rendering: auto; background: transparent;" width="456" height="90"><style type="text/css">
  .ld-text text {
    text-anchor: middle;
    dominant-baseline: middle;
    font-size: 70px;
    opacity: 0;
    user-select: none;
    pointer-events: none;
  }
</style>
<g style="transform-origin:228px 45px;transform:scale(1)" class="ld-text">
<g transform="translate(228,45)">
  <g transform="scale(0.8750) translate(0,0)"><g class="path" style="opacity: 1; transform-origin: -228.12px -2.81px; transform: matrix3d(0.91, 0, 0, 0, 0, 0.91, 0, 0, 0, 0, 0.91, 0, 0, 0, 0, 1); animation: 0.568182s linear -0.340909s infinite normal forwards running animate-gadmhrecr55; transform-box: view-box;"><path d="M50.98-6.67L50.98 55.05L45.90 55.05L40.04 45.25Q39.18 47.71 37.68 49.70Q36.17 51.69 34.20 53.12Q32.23 54.54 29.86 55.32Q27.50 56.10 24.88 56.10L24.88 56.10Q19.73 56.10 15.66 54.27Q11.60 52.43 8.79 49.25Q5.98 46.07 4.49 41.77Q3.01 37.47 3.01 32.55L3.01 32.55Q3.01 27.63 4.49 23.33Q5.98 19.03 8.79 15.87Q11.60 12.71 15.66 10.87Q19.73 9.03 24.88 9.03L24.88 9.03Q28.83 9.03 32.13 10.56Q35.43 12.08 37.77 15.32L37.77 15.32L37.77-6.67L50.98-6.67 zM37.70 32.55L37.70 32.55Q37.70 30.99 37.46 29.11Q37.23 27.24 36.72 25.32Q36.21 23.41 35.39 21.61Q34.57 19.82 33.38 18.41Q32.19 17 30.61 16.16Q29.02 15.32 26.99 15.32L26.99 15.32Q24.77 15.32 23.13 16.12Q21.48 16.92 20.31 18.27Q19.14 19.62 18.38 21.38Q17.62 23.14 17.19 25.05Q16.76 26.96 16.58 28.90Q16.41 30.83 16.41 32.55L16.41 32.55Q16.41 34.27 16.58 36.20Q16.76 38.14 17.19 40.05Q17.62 41.96 18.38 43.74Q19.14 45.52 20.31 46.87Q21.48 48.21 23.13 49.01Q24.77 49.82 26.99 49.82L26.99 49.82Q29.22 49.82 30.90 49.03Q32.58 48.25 33.77 46.91Q34.96 45.56 35.72 43.82Q36.48 42.08 36.91 40.15Q37.34 38.21 37.52 36.26Q37.70 34.31 37.70 32.55" style="fill: rgb(255, 0, 0);" transform="translate(-255.115,-27.527)"></path></g><g class="path" style="opacity: 1; transform-origin: -172.73px 4.87px; transform: matrix3d(0.91, 0, 0, 0, 0, 0.91, 0, 0, 0, 0, 0.91, 0, 0, 0, 0, 1); animation: 0.568182s linear -0.306818s infinite normal forwards running animate-gadmhrecr55; transform-box: view-box;"><path d="M72.85 33.64L72.85 33.64Q75.27 34.19 77.70 34.50Q80.12 34.82 82.58 34.82L82.58 34.82Q85.16 34.82 87.36 34.33Q89.57 33.84 91.19 32.69Q92.81 31.53 93.75 29.62Q94.69 27.71 94.69 24.85L94.69 24.85Q94.69 22.55 94.06 20.64Q93.44 18.72 92.21 17.35Q90.98 15.99 89.18 15.23Q87.38 14.46 85 14.46L85 14.46Q82.77 14.46 81 15.28Q79.22 16.10 77.87 17.49Q76.52 18.88 75.57 20.71Q74.61 22.55 73.98 24.54Q73.36 26.53 73.09 28.57Q72.81 30.60 72.81 32.39L72.81 32.39Q72.81 32.71 72.81 33.02Q72.81 33.33 72.85 33.64 zM105.39 24.74L105.39 24.74Q105.39 27.51 104.49 29.68Q103.59 31.85 102.05 33.49Q100.51 35.13 98.48 36.26Q96.45 37.39 94.14 38.12Q91.84 38.84 89.39 39.15Q86.95 39.46 84.65 39.46L84.65 39.46Q81.72 39.46 78.87 39.05Q76.02 38.64 73.24 37.75L73.24 37.75Q73.67 40.32 74.61 42.65Q75.55 44.97 77.11 46.71Q78.67 48.45 80.96 49.46Q83.24 50.48 86.37 50.48L86.37 50.48Q88.44 50.48 90.31 49.85Q92.19 49.23 93.75 48.10Q95.31 46.96 96.50 45.40Q97.70 43.84 98.44 41.92L98.44 41.92L104.14 44.03Q102.85 47.12 100.61 49.37Q98.36 51.61 95.53 53.08Q92.70 54.54 89.51 55.25Q86.33 55.95 83.20 55.95L83.20 55.95Q78.05 55.95 73.67 54.21Q69.30 52.47 66.13 49.35Q62.97 46.22 61.17 41.89Q59.38 37.55 59.38 32.39L59.38 32.39Q59.38 27.24 61.17 22.90Q62.97 18.57 66.13 15.44Q69.30 12.32 73.67 10.58Q78.05 8.84 83.20 8.84L83.20 8.84Q85.70 8.84 88.32 9.19Q90.94 9.54 93.40 10.30Q95.86 11.07 98.05 12.28Q100.23 13.49 101.86 15.26Q103.48 17.04 104.43 19.39Q105.39 21.73 105.39 24.74" style="fill: rgb(251, 176, 52);" transform="translate(-255.115,-27.527)"></path></g><g class="path" style="opacity: 1; transform-origin: -123.5px 4.87px; transform: matrix3d(0.91, 0, 0, 0, 0, 0.91, 0, 0, 0, 0, 0.91, 0, 0, 0, 0, 1); animation: 0.568182s linear -0.272727s infinite normal forwards running animate-gadmhrecr55; transform-box: view-box;"><path d="M152.46 40.64L152.46 40.64Q152.46 43.60 151.60 45.91Q150.74 48.21 149.26 49.91Q147.77 51.61 145.74 52.76Q143.71 53.92 141.39 54.62Q139.06 55.32 136.52 55.64Q133.98 55.95 131.48 55.95L131.48 55.95Q128.13 55.95 125.55 55.52Q122.97 55.09 120.63 54.13Q118.28 53.17 115.96 51.65Q113.63 50.13 110.78 47.94L110.78 47.94L118.48 41.65Q119.53 43.64 121.27 45.26Q123.01 46.89 124.88 48.06Q126.76 49.23 128.52 49.85Q130.27 50.48 131.37 50.48L131.37 50.48Q132.27 50.48 133.40 50.42Q134.53 50.36 135.70 50.19Q136.88 50.01 138.01 49.66Q139.14 49.31 140.02 48.70Q140.90 48.10 141.43 47.18Q141.95 46.26 141.95 44.97L141.95 44.97Q141.95 43.64 141.27 42.65Q140.59 41.65 139.49 40.91Q138.40 40.17 136.99 39.66Q135.59 39.15 134.16 38.76Q132.73 38.37 131.41 38.08Q130.08 37.78 129.10 37.51L129.10 37.51Q127.30 37 125.31 36.48Q123.32 35.95 121.37 35.26Q119.41 34.58 117.64 33.64Q115.86 32.71 114.51 31.40Q113.16 30.09 112.36 28.31Q111.56 26.53 111.56 24.15L111.56 24.15Q111.56 19.78 113.30 16.83Q115.04 13.88 117.89 12.10Q120.74 10.32 124.38 9.58Q128.01 8.84 131.76 8.84L131.76 8.84Q134.34 8.84 137.19 9.37Q140.04 9.89 142.73 10.93Q145.43 11.96 147.77 13.45Q150.12 14.93 151.68 16.85L151.68 16.85L143.98 23.17Q143.13 20.83 141.74 19.15Q140.35 17.47 138.73 16.40Q137.11 15.32 135.41 14.82Q133.71 14.31 132.27 14.31L132.27 14.31Q130.86 14.31 129.10 14.42Q127.34 14.54 125.80 15.09Q124.26 15.64 123.18 16.75Q122.11 17.86 122.11 19.82L122.11 19.82Q122.11 21.22 122.75 22.22Q123.40 23.21 124.45 23.94Q125.51 24.66 126.86 25.15Q128.20 25.64 129.61 26.01Q131.02 26.38 132.34 26.65Q133.67 26.92 134.73 27.24L134.73 27.24Q136.52 27.75 138.54 28.27Q140.55 28.80 142.50 29.48Q144.45 30.17 146.27 31.09Q148.09 32 149.45 33.33Q150.82 34.66 151.64 36.44Q152.46 38.21 152.46 40.64" style="fill: rgb(255, 221, 0);" transform="translate(-255.115,-27.527)"></path></g><g class="path" style="opacity: 1; transform-origin: -73.95px 4.87px; transform: matrix3d(0.91, 0, 0, 0, 0, 0.91, 0, 0, 0, 0, 0.91, 0, 0, 0, 0, 1); animation: 0.568182s linear -0.238636s infinite normal forwards running animate-gadmhrecr55; transform-box: view-box;"><path d="M171.64 33.64L171.64 33.64Q174.06 34.19 176.48 34.50Q178.91 34.82 181.37 34.82L181.37 34.82Q183.95 34.82 186.15 34.33Q188.36 33.84 189.98 32.69Q191.60 31.53 192.54 29.62Q193.48 27.71 193.48 24.85L193.48 24.85Q193.48 22.55 192.85 20.64Q192.23 18.72 191 17.35Q189.77 15.99 187.97 15.23Q186.17 14.46 183.79 14.46L183.79 14.46Q181.56 14.46 179.79 15.28Q178.01 16.10 176.66 17.49Q175.31 18.88 174.36 20.71Q173.40 22.55 172.77 24.54Q172.15 26.53 171.88 28.57Q171.60 30.60 171.60 32.39L171.60 32.39Q171.60 32.71 171.60 33.02Q171.60 33.33 171.64 33.64 zM204.18 24.74L204.18 24.74Q204.18 27.51 203.28 29.68Q202.38 31.85 200.84 33.49Q199.30 35.13 197.27 36.26Q195.23 37.39 192.93 38.12Q190.63 38.84 188.18 39.15Q185.74 39.46 183.44 39.46L183.44 39.46Q180.51 39.46 177.66 39.05Q174.80 38.64 172.03 37.75L172.03 37.75Q172.46 40.32 173.40 42.65Q174.34 44.97 175.90 46.71Q177.46 48.45 179.75 49.46Q182.03 50.48 185.16 50.48L185.16 50.48Q187.23 50.48 189.10 49.85Q190.98 49.23 192.54 48.10Q194.10 46.96 195.29 45.40Q196.48 43.84 197.23 41.92L197.23 41.92L202.93 44.03Q201.64 47.12 199.39 49.37Q197.15 51.61 194.32 53.08Q191.48 54.54 188.30 55.25Q185.12 55.95 181.99 55.95L181.99 55.95Q176.84 55.95 172.46 54.21Q168.09 52.47 164.92 49.35Q161.76 46.22 159.96 41.89Q158.16 37.55 158.16 32.39L158.16 32.39Q158.16 27.24 159.96 22.90Q161.76 18.57 164.92 15.44Q168.09 12.32 172.46 10.58Q176.84 8.84 181.99 8.84L181.99 8.84Q184.49 8.84 187.11 9.19Q189.73 9.54 192.19 10.30Q194.65 11.07 196.84 12.28Q199.02 13.49 200.64 15.26Q202.27 17.04 203.22 19.39Q204.18 21.73 204.18 24.74" style="fill: rgb(193, 216, 47);" transform="translate(-255.115,-27.527)"></path></g><g class="path" style="opacity: 1; transform-origin: -21.25px 4.87px; transform: matrix3d(0.91, 0, 0, 0, 0, 0.91, 0, 0, 0, 0, 0.91, 0, 0, 0, 0, 1); animation: 0.568182s linear -0.204545s infinite normal forwards running animate-gadmhrecr55; transform-box: view-box;"><path d="M257.85 9.93L257.85 55.05L244.65 55.05L244.65 49.66Q242.30 52.86 239 54.41Q235.70 55.95 231.76 55.95L231.76 55.95Q226.60 55.95 222.54 54.11Q218.48 52.28 215.66 49.09Q212.85 45.91 211.37 41.61Q209.88 37.32 209.88 32.39L209.88 32.39Q209.88 27.47 211.37 23.17Q212.85 18.88 215.66 15.69Q218.48 12.51 222.54 10.67Q226.60 8.84 231.76 8.84L231.76 8.84Q234.38 8.84 236.74 9.62Q239.10 10.40 241.07 11.83Q243.05 13.25 244.55 15.26Q246.05 17.28 246.91 19.74L246.91 19.74L252.77 9.93L257.85 9.93 zM244.57 32.39L244.57 32.39Q244.57 30.64 244.39 28.68Q244.22 26.73 243.79 24.82Q243.36 22.90 242.60 21.16Q241.84 19.42 240.64 18.08Q239.45 16.73 237.77 15.95Q236.09 15.17 233.87 15.17L233.87 15.17Q231.64 15.17 230 15.97Q228.36 16.77 227.19 18.12Q226.02 19.46 225.25 21.22Q224.49 22.98 224.06 24.89Q223.63 26.81 223.46 28.74Q223.28 30.67 223.28 32.39L223.28 32.39Q223.28 34.11 223.46 36.07Q223.63 38.02 224.06 39.93Q224.49 41.85 225.25 43.60Q226.02 45.36 227.19 46.71Q228.36 48.06 230 48.86Q231.64 49.66 233.87 49.66L233.87 49.66Q235.90 49.66 237.48 48.82Q239.06 47.98 240.25 46.57Q241.45 45.17 242.27 43.37Q243.09 41.57 243.59 39.66Q244.10 37.75 244.34 35.85Q244.57 33.96 244.57 32.39" style="fill: rgb(0, 164, 228);" transform="translate(-255.115,-27.527)"></path></g><g class="path" style="opacity: 1; transform-origin: -16.21px -29.51px; transform: matrix3d(0.91, 0, 0, 0, 0, 0.91, 0, 0, 0, 0, 0.91, 0, 0, 0, 0, 1); animation: 0.568182s linear -0.170455s infinite normal forwards running animate-gadmhrecr55; transform-box: view-box;"><path d="M236.56-8.90L248.98-8.90L236.60 4.93L228.83 4.93L236.56-8.90" style="fill: rgb(255, 165, 69);" transform="translate(-255.115,-27.527)"></path></g><g class="path" style="opacity: 1; transform-origin: 36.82px 9.22px; transform: matrix3d(0.91, 0, 0, 0, 0, 0.91, 0, 0, 0, 0, 0.91, 0, 0, 0, 0, 1); animation: 0.568182s linear -0.136364s infinite normal forwards running animate-gadmhrecr55; transform-box: view-box;"><path d="M315 29.19L315 29.19Q315 33.76 313.89 38.72Q312.77 43.68 310.78 48.45Q308.79 53.21 306.02 57.41Q303.24 61.61 299.92 64.66L299.92 64.66L294.96 61.96Q296.02 60.01 296.95 57.59Q297.89 55.17 298.65 52.45Q299.41 49.74 300.02 46.85Q300.63 43.96 301.04 41.12Q301.45 38.29 301.66 35.62Q301.88 32.94 301.88 30.64L301.88 30.64Q301.88 29.11 301.76 27.37Q301.64 25.64 301.27 23.90Q300.90 22.16 300.27 20.56Q299.65 18.96 298.61 17.75Q297.58 16.53 296.11 15.79Q294.65 15.05 292.66 15.05L292.66 15.05Q290.70 15.05 289.18 15.93Q287.66 16.81 286.48 18.23Q285.31 19.66 284.47 21.50Q283.63 23.33 283.11 25.26Q282.58 27.20 282.34 29.07Q282.11 30.95 282.11 32.43L282.11 32.43L282.11 55.05L268.87 55.05L268.87 9.93L273.95 9.93L280 20.44Q281.09 17.82 282.73 15.67Q284.38 13.53 286.45 12Q288.52 10.48 291.04 9.66Q293.55 8.84 296.48 8.84L296.48 8.84Q301.17 8.84 304.65 10.36Q308.13 11.89 310.43 14.60Q312.73 17.32 313.87 21.05Q315 24.78 315 29.19" style="fill: rgb(242, 99, 237);" transform="translate(-255.115,-27.527)"></path></g><g class="path" style="opacity: 1; transform-origin: 90.08px -2.81px; transform: matrix3d(0.91, 0, 0, 0, 0, 0.91, 0, 0, 0, 0, 0.91, 0, 0, 0, 0, 1); animation: 0.568182s linear -0.102273s infinite normal forwards running animate-gadmhrecr55; transform-box: view-box;"><path d="M369.18-6.67L369.18 55.05L364.10 55.05L358.24 45.25Q357.38 47.71 355.88 49.70Q354.38 51.69 352.40 53.12Q350.43 54.54 348.07 55.32Q345.70 56.10 343.09 56.10L343.09 56.10Q337.93 56.10 333.87 54.27Q329.80 52.43 326.99 49.25Q324.18 46.07 322.70 41.77Q321.21 37.47 321.21 32.55L321.21 32.55Q321.21 27.63 322.70 23.33Q324.18 19.03 326.99 15.87Q329.80 12.71 333.87 10.87Q337.93 9.03 343.09 9.03L343.09 9.03Q347.03 9.03 350.33 10.56Q353.63 12.08 355.98 15.32L355.98 15.32L355.98-6.67L369.18-6.67 zM355.90 32.55L355.90 32.55Q355.90 30.99 355.66 29.11Q355.43 27.24 354.92 25.32Q354.41 23.41 353.59 21.61Q352.77 19.82 351.58 18.41Q350.39 17 348.81 16.16Q347.23 15.32 345.20 15.32L345.20 15.32Q342.97 15.32 341.33 16.12Q339.69 16.92 338.52 18.27Q337.34 19.62 336.58 21.38Q335.82 23.14 335.39 25.05Q334.96 26.96 334.79 28.90Q334.61 30.83 334.61 32.55L334.61 32.55Q334.61 34.27 334.79 36.20Q334.96 38.14 335.39 40.05Q335.82 41.96 336.58 43.74Q337.34 45.52 338.52 46.87Q339.69 48.21 341.33 49.01Q342.97 49.82 345.20 49.82L345.20 49.82Q347.42 49.82 349.10 49.03Q350.78 48.25 351.97 46.91Q353.16 45.56 353.93 43.82Q354.69 42.08 355.12 40.15Q355.55 38.21 355.72 36.26Q355.90 34.31 355.90 32.55" style="fill: rgb(255, 0, 0);" transform="translate(-255.115,-27.527)"></path></g><g class="path" style="opacity: 1; transform-origin: 147.56px 4.87px; transform: matrix3d(0.91, 0, 0, 0, 0, 0.91, 0, 0, 0, 0, 0.91, 0, 0, 0, 0, 1); animation: 0.568182s linear -0.0681818s infinite normal forwards running animate-gadmhrecr55; transform-box: view-box;"><path d="M427.85 32.39L427.85 32.39Q427.85 35.91 426.91 39Q425.98 42.08 424.32 44.70Q422.66 47.32 420.31 49.41Q417.97 51.50 415.18 52.94Q412.38 54.39 409.20 55.17Q406.02 55.95 402.66 55.95L402.66 55.95Q399.30 55.95 396.13 55.17Q392.97 54.39 390.18 52.94Q387.38 51.50 385.04 49.41Q382.70 47.32 381.04 44.70Q379.38 42.08 378.44 38.98Q377.50 35.87 377.50 32.39L377.50 32.39Q377.50 28.92 378.44 25.81Q379.38 22.71 381.04 20.09Q382.70 17.47 385.04 15.38Q387.38 13.29 390.18 11.85Q392.97 10.40 396.13 9.62Q399.30 8.84 402.66 8.84L402.66 8.84Q406.02 8.84 409.20 9.62Q412.38 10.40 415.18 11.85Q417.97 13.29 420.31 15.38Q422.66 17.47 424.32 20.09Q425.98 22.71 426.91 25.81Q427.85 28.92 427.85 32.39 zM414.41 32.39L414.41 32.39Q414.41 30.52 414.20 28.43Q413.98 26.34 413.48 24.33Q412.97 22.32 412.09 20.46Q411.21 18.60 409.92 17.22Q408.63 15.83 406.84 14.99Q405.04 14.15 402.66 14.15L402.66 14.15Q400.39 14.15 398.63 15.01Q396.88 15.87 395.57 17.30Q394.26 18.72 393.38 20.60Q392.50 22.47 391.95 24.48Q391.41 26.50 391.17 28.55Q390.94 30.60 390.94 32.39L390.94 32.39Q390.94 34.19 391.17 36.24Q391.41 38.29 391.95 40.32Q392.50 42.35 393.38 44.21Q394.26 46.07 395.57 47.49Q396.88 48.92 398.63 49.78Q400.39 50.64 402.66 50.64L402.66 50.64Q405 50.64 406.80 49.80Q408.59 48.96 409.90 47.55Q411.21 46.14 412.07 44.31Q412.93 42.47 413.46 40.44Q413.98 38.41 414.20 36.34Q414.41 34.27 414.41 32.39" style="fill: rgb(251, 176, 52);" transform="translate(-255.115,-27.527)"></path></g><g class="path" style="opacity: 1; transform-origin: 193.03px -3.34px; transform: matrix3d(0.91, 0, 0, 0, 0, 0.91, 0, 0, 0, 0, 0.91, 0, 0, 0, 0, 1); animation: 0.568182s linear -0.0340909s infinite normal forwards running animate-gadmhrecr55; transform-box: view-box;"><path d="M452.03 15.17L452.03 55.05L438.79 55.05L438.79 15.17L430.59 15.17L430.59 9.93L438.79 9.93L438.79-6.67L452.03-6.67L452.03 9.93L465.70 9.93L465.70 15.17L452.03 15.17" style="fill: rgb(255, 221, 0);" transform="translate(-255.115,-27.527)"></path></g><g class="path" style="opacity: 1; transform-origin: 235.12px 4.87px; transform: matrix3d(0.91, 0, 0, 0, 0, 0.91, 0, 0, 0, 0, 0.91, 0, 0, 0, 0, 1); animation: 0.568182s linear 0s infinite normal forwards running animate-gadmhrecr55; transform-box: view-box;"><path d="M480.70 33.64L480.70 33.64Q483.13 34.19 485.55 34.50Q487.97 34.82 490.43 34.82L490.43 34.82Q493.01 34.82 495.21 34.33Q497.42 33.84 499.04 32.69Q500.66 31.53 501.60 29.62Q502.54 27.71 502.54 24.85L502.54 24.85Q502.54 22.55 501.91 20.64Q501.29 18.72 500.06 17.35Q498.83 15.99 497.03 15.23Q495.23 14.46 492.85 14.46L492.85 14.46Q490.63 14.46 488.85 15.28Q487.07 16.10 485.72 17.49Q484.38 18.88 483.42 20.71Q482.46 22.55 481.84 24.54Q481.21 26.53 480.94 28.57Q480.66 30.60 480.66 32.39L480.66 32.39Q480.66 32.71 480.66 33.02Q480.66 33.33 480.70 33.64 zM513.24 24.74L513.24 24.74Q513.24 27.51 512.34 29.68Q511.45 31.85 509.90 33.49Q508.36 35.13 506.33 36.26Q504.30 37.39 501.99 38.12Q499.69 38.84 497.25 39.15Q494.80 39.46 492.50 39.46L492.50 39.46Q489.57 39.46 486.72 39.05Q483.87 38.64 481.09 37.75L481.09 37.75Q481.52 40.32 482.46 42.65Q483.40 44.97 484.96 46.71Q486.52 48.45 488.81 49.46Q491.09 50.48 494.22 50.48L494.22 50.48Q496.29 50.48 498.16 49.85Q500.04 49.23 501.60 48.10Q503.16 46.96 504.36 45.40Q505.55 43.84 506.29 41.92L506.29 41.92L511.99 44.03Q510.70 47.12 508.46 49.37Q506.21 51.61 503.38 53.08Q500.55 54.54 497.36 55.25Q494.18 55.95 491.05 55.95L491.05 55.95Q485.90 55.95 481.52 54.21Q477.15 52.47 473.98 49.35Q470.82 46.22 469.02 41.89Q467.23 37.55 467.23 32.39L467.23 32.39Q467.23 27.24 469.02 22.90Q470.82 18.57 473.98 15.44Q477.15 12.32 481.52 10.58Q485.90 8.84 491.05 8.84L491.05 8.84Q493.55 8.84 496.17 9.19Q498.79 9.54 501.25 10.30Q503.71 11.07 505.90 12.28Q508.09 13.49 509.71 15.26Q511.33 17.04 512.29 19.39Q513.24 21.73 513.24 24.74" style="fill: rgb(193, 216, 47);" transform="translate(-255.115,-27.527)"></path></g></g><text dy="0.35em" fill="#ff0000" font-family="Aclonica" font-size="70">deseándote</text>
</g>
</g><style type="text/css">@keyframes animate-gadmhrecr55 { 0.00% {transform: translate(0.00px,0.00px) rotate(0.00deg) scale(0.91, 0.91) skew(0deg, 0.00deg) ;opacity: 1.00;}4.00% {transform: translate(0.00px,0.00px) rotate(0.00deg) scale(0.91, 0.91) ;}8.00% {animation-timing-function: cubic-bezier(0.69,0.60,0.35,0.27);transform: translate(0.00px,0.00px) rotate(0.00deg) scale(0.91, 0.91) ;}14.00% {transform: translate(0.00px,0.00px) rotate(0.00deg) scale(0.93, 0.93) ;}18.00% {transform: translate(0.00px,0.00px) rotate(0.00deg) scale(0.94, 0.94) ;}22.00% {animation-timing-function: cubic-bezier(0.67,0.66,0.34,0.33);transform: translate(0.00px,0.00px) rotate(0.00deg) scale(0.96, 0.96) ;}26.00% {transform: translate(0.00px,0.00px) rotate(0.00deg) scale(0.97, 0.97) ;}30.00% {transform: translate(0.00px,0.00px) rotate(0.00deg) scale(0.99, 0.99) ;}34.00% {animation-timing-function: cubic-bezier(0.65,0.71,0.32,0.38);transform: translate(0.00px,0.00px) rotate(0.00deg) scale(1.01, 1.01) ;}40.00% {animation-timing-function: cubic-bezier(0.64,0.74,0.31,0.41);transform: translate(0.00px,0.00px) rotate(0.00deg) scale(1.02, 1.02) ;}46.00% {animation-timing-function: cubic-bezier(0.60,0.91,0.23,0.63);transform: translate(0.00px,0.00px) rotate(0.00deg) scale(1.03, 1.03) ;}50.00% {transform: translate(0.00px,0.00px) rotate(0.00deg) scale(1.03, 1.03) ;}54.00% {transform: translate(0.00px,0.00px) rotate(0.00deg) scale(1.03, 1.03) ;}58.00% {animation-timing-function: cubic-bezier(0.69,0.60,0.35,0.27);transform: translate(0.00px,0.00px) rotate(0.00deg) scale(1.03, 1.03) ;}64.00% {transform: translate(0.00px,0.00px) rotate(0.00deg) scale(1.01, 1.01) ;}68.00% {transform: translate(0.00px,0.00px) rotate(0.00deg) scale(1.00, 1.00) ;}72.00% {animation-timing-function: cubic-bezier(0.67,0.66,0.34,0.33);transform: translate(0.00px,0.00px) rotate(0.00deg) scale(0.98, 0.98) ;}76.00% {animation-timing-function: cubic-bezier(0.66,0.68,0.33,0.35);transform: translate(0.00px,0.00px) rotate(0.00deg) scale(0.97, 0.97) ;}82.00% {animation-timing-function: cubic-bezier(0.65,0.71,0.32,0.38);transform: translate(0.00px,0.00px) rotate(0.00deg) scale(0.94, 0.94) ;}88.00% {animation-timing-function: cubic-bezier(0.65,0.73,0.31,0.40);transform: translate(0.00px,0.00px) rotate(0.00deg) scale(0.92, 0.92) ;}94.00% {animation-timing-function: cubic-bezier(0.63,0.80,0.28,0.48);transform: translate(0.00px,0.00px) rotate(0.00deg) scale(0.91, 0.91) ;}100.00% {animation-timing-function: cubic-bezier(0.63,0.80,0.28,0.48);transform: translate(0.00px,0.00px) rotate(0.00deg) scale(0.91, 0.91) ;} }</style><!-- [ldio] generated by https://loading.io --></svg>